<svg width="24" height="24" viewBox="0 0 24 24" fill="none" xmlns="http://www.w3.org/2000/svg">
<path d="M15.3865 10.4879H15.3875C15.4746 10.4632 15.5639 10.4029 15.6365 10.3307C15.7083 10.2593 15.7685 10.1709 15.7937 10.0826C15.7978 10.0703 15.8012 10.0531 15.8035 10.0358C15.8059 10.0173 15.8082 9.99376 15.8103 9.96741C15.8144 9.9147 15.8181 9.84629 15.821 9.76721C15.8269 9.60865 15.8298 9.40553 15.8298 9.1969V8.48694H16.5398C16.7485 8.48694 16.9514 8.48246 17.1111 8.4762C17.1908 8.47307 17.2603 8.4694 17.3142 8.46545L17.4314 8.45276L17.4333 8.45178C17.5272 8.42489 17.6214 8.35392 17.6951 8.27014C17.7689 8.18618 17.8284 8.08225 17.8455 7.98206C17.8625 7.88108 17.8384 7.76585 17.7908 7.6637C17.7548 7.58666 17.7031 7.51346 17.6414 7.45667L17.5769 7.40588C17.5489 7.38719 17.5219 7.36987 17.4851 7.35706C17.449 7.34453 17.4055 7.3368 17.3435 7.33167C17.2201 7.32146 17.0101 7.32092 16.6101 7.32092H15.8298V6.57776C15.8298 6.20068 15.8289 5.99799 15.8191 5.87268C15.8142 5.80966 15.807 5.76405 15.7957 5.72424C15.7842 5.68416 15.7696 5.65154 15.7517 5.61584L15.7507 5.61487C15.7271 5.56954 15.6938 5.52063 15.658 5.47815C15.6223 5.43602 15.5815 5.39657 15.5437 5.37268L15.5427 5.37366C15.458 5.31757 15.3468 5.28912 15.238 5.28772C15.1289 5.28639 15.0158 5.31104 14.9304 5.36584C14.8764 5.40023 14.8288 5.4318 14.7917 5.47424C14.7532 5.51843 14.7283 5.57167 14.7117 5.64709C14.6795 5.79279 14.6737 6.03871 14.6638 6.50354L14.6472 7.3053L13.8464 7.32092C13.4414 7.32922 13.2258 7.33446 13.0994 7.34631C13.0358 7.35229 12.9908 7.3604 12.9548 7.37268C12.9181 7.38529 12.8923 7.40116 12.866 7.41956L12.865 7.42053C12.5286 7.66238 12.5596 8.18232 12.9226 8.39319L13.0193 8.43616C13.0575 8.44709 13.1039 8.45504 13.1687 8.46057C13.298 8.47159 13.5097 8.47512 13.8904 8.4801L14.6638 8.48987V9.25647C14.6638 9.5844 14.666 9.79503 14.6736 9.93323C14.681 10.0689 14.6938 10.1438 14.7195 10.193L14.7722 10.274C14.8325 10.3502 14.9142 10.4101 15.0037 10.4498C15.123 10.5028 15.2604 10.5213 15.3865 10.4879Z" fill="white" stroke="white" stroke-width="0.1"/>
<path d="M7.30054 8.48352C8.38874 8.48352 8.94654 8.48271 9.25269 8.46301C9.40549 8.45317 9.50082 8.4389 9.56909 8.41516C9.64009 8.39044 9.68033 8.35626 9.72339 8.3175L9.77124 8.26868C9.99209 8.01249 9.93723 7.59969 9.64429 7.4054L9.53491 7.3302L9.52222 7.32043H5.07886L5.06616 7.3302L4.95679 7.4054L4.9021 7.44739C4.64076 7.66895 4.61989 8.08364 4.87769 8.3175L4.94507 8.37122C4.96927 8.38753 4.99656 8.40283 5.03198 8.41516C5.10026 8.4389 5.19558 8.45317 5.34839 8.46301C5.65455 8.4827 6.21241 8.48352 7.30054 8.48352Z" fill="white" stroke="white" stroke-width="0.1"/>
<path d="M9.00647 17.25C9.16837 17.25 9.30861 17.193 9.40881 17.0928C9.50901 16.9926 9.56604 16.8523 9.56604 16.6904C9.56604 16.6426 9.56136 16.5913 9.55432 16.5469C9.54753 16.5042 9.53764 16.4618 9.52405 16.4346C9.51847 16.4236 9.50728 16.4093 9.4967 16.3965C9.48442 16.3816 9.46793 16.3623 9.44788 16.3398C9.40774 16.295 9.35226 16.2353 9.28577 16.165C9.15255 16.0243 8.97372 15.8403 8.78186 15.6484L8.12073 14.9854L8.77209 14.3369C8.96042 14.1486 9.13695 13.9674 9.27014 13.8271C9.33673 13.757 9.39316 13.6963 9.4342 13.6504C9.45461 13.6275 9.47209 13.6075 9.48499 13.5918C9.4967 13.5775 9.50735 13.5629 9.51331 13.5518C9.53035 13.5198 9.54378 13.4726 9.55237 13.4258C9.56112 13.3779 9.56604 13.3249 9.56604 13.2783C9.566 13.1165 9.50898 12.9761 9.40881 12.876C9.30862 12.7758 9.16833 12.7188 9.00647 12.7188C8.95985 12.7188 8.90687 12.7237 8.85901 12.7324C8.81222 12.741 8.76498 12.7544 8.73303 12.7715C8.72175 12.7775 8.70743 12.7889 8.69299 12.8008C8.67728 12.8137 8.65725 12.8302 8.6344 12.8506C8.58846 12.8916 8.52777 12.9481 8.45764 13.0146C8.31736 13.1478 8.1362 13.3244 7.94788 13.5127L7.29944 14.1641L6.63635 13.5029C6.44449 13.3111 6.26049 13.1322 6.11975 12.999C6.04953 12.9326 5.98979 12.877 5.94495 12.8369C5.92257 12.8169 5.90315 12.8004 5.88831 12.7881L5.85022 12.7607C5.77999 12.7248 5.67449 12.7147 5.57581 12.7207C5.47639 12.7268 5.37076 12.7497 5.29944 12.792L5.29846 12.793C5.2484 12.8236 5.18956 12.8775 5.14612 12.9307L5.10901 12.9824C5.06283 13.0575 5.03872 13.1645 5.03479 13.2666C5.03088 13.3684 5.04669 13.4758 5.08752 13.5518C5.09354 13.563 5.10497 13.5774 5.11682 13.5918C5.1297 13.6075 5.14625 13.6276 5.16663 13.6504C5.20767 13.6963 5.2641 13.757 5.33069 13.8271C5.46387 13.9674 5.64041 14.1486 5.82874 14.3369L6.47913 14.9854L5.81897 15.6484C5.62711 15.8403 5.44828 16.0243 5.31506 16.165C5.24856 16.2353 5.19309 16.295 5.15295 16.3398C5.1329 16.3623 5.11641 16.3816 5.10413 16.3965C5.09355 16.4093 5.08235 16.4236 5.07678 16.4346C5.06319 16.4618 5.0533 16.5042 5.04651 16.5469C5.03947 16.5913 5.03479 16.6426 5.03479 16.6904C5.03479 16.8523 5.09186 16.9926 5.19202 17.0928C5.29219 17.1929 5.43252 17.25 5.59436 17.25C5.64095 17.25 5.69398 17.2451 5.74182 17.2363C5.78861 17.2277 5.83585 17.2143 5.8678 17.1973C5.87896 17.1913 5.89355 17.1807 5.90784 17.1689C5.92355 17.156 5.94358 17.1386 5.96643 17.1182C6.01237 17.0771 6.07306 17.0207 6.14319 16.9541C6.28347 16.8209 6.46463 16.6444 6.65295 16.4561L7.30042 15.8057L7.96448 16.4658C8.15634 16.6577 8.34034 16.8365 8.48108 16.9697C8.55133 17.0362 8.61101 17.0917 8.65588 17.1318C8.6783 17.1519 8.69766 17.1684 8.71252 17.1807C8.72534 17.1912 8.73959 17.2024 8.75061 17.208C8.7778 17.2216 8.82019 17.2315 8.86292 17.2383C8.90737 17.2453 8.95868 17.25 9.00647 17.25Z" fill="white" stroke="white" stroke-width="0.1"/>
<path d="M15.2772 14.0112C16.3562 14.0062 16.9075 14.0037 17.2 13.9937C17.3454 13.9887 17.4302 13.982 17.4852 13.9712C17.5133 13.9656 17.5356 13.9586 17.5545 13.9497C17.5724 13.9412 17.5856 13.9312 17.5975 13.9224H17.5984C17.954 13.6648 17.9163 13.1189 17.5213 12.9282L17.5223 12.9272C17.4854 12.9083 17.4519 12.8932 17.3895 12.8823C17.3297 12.8719 17.2433 12.865 17.0994 12.8608C16.8107 12.8525 16.2795 12.8533 15.244 12.855C14.6623 12.855 14.123 12.8599 13.7225 12.8657C13.5222 12.8686 13.3562 12.872 13.2371 12.8755C13.1777 12.8772 13.1295 12.8786 13.0945 12.8804C13.0772 12.8812 13.0628 12.8824 13.0516 12.8833C13.0419 12.8841 13.0303 12.8852 13.0223 12.8872H13.0193C12.7717 12.965 12.617 13.2117 12.6385 13.4888C12.6473 13.5943 12.672 13.6829 12.7205 13.7583C12.769 13.8335 12.8386 13.8923 12.9295 13.9448H12.9305C12.9634 13.9631 12.9931 13.9782 13.0535 13.9888C13.1106 13.9987 13.1962 14.0055 13.3426 14.0093C13.6367 14.0168 14.1884 14.0146 15.2772 14.0112Z" fill="white" stroke="white" stroke-width="0.1"/>
<path d="M17.095 17.1094C17.2412 17.1054 17.3282 17.099 17.388 17.0889C17.4501 17.0783 17.4832 17.0634 17.5208 17.0459L17.5218 17.0449C17.8148 16.9002 17.9332 16.5684 17.7835 16.2822L17.7845 16.2812C17.7612 16.2364 17.7289 16.1885 17.6966 16.1475C17.6648 16.1071 17.6293 16.0702 17.5989 16.0479L17.5999 16.0469C17.5876 16.0376 17.5729 16.0275 17.554 16.0186C17.5353 16.0098 17.5135 16.0035 17.4857 15.998C17.4306 15.9872 17.3453 15.9804 17.1995 15.9756C16.9062 15.966 16.3531 15.9643 15.2708 15.9609C14.28 15.9559 13.725 15.9552 13.4056 15.9619C13.2463 15.9653 13.1438 15.9698 13.0745 15.9775C13.0397 15.9814 13.0123 15.9865 12.9896 15.9922L12.9329 16.0127C12.7582 16.0983 12.6569 16.2619 12.639 16.4795C12.6302 16.5899 12.641 16.6842 12.68 16.7695C12.719 16.8546 12.784 16.9266 12.8743 16.9961L12.9944 17.0898L13.0081 17.1006H13.0247L15.1907 17.1104C16.2596 17.1153 16.802 17.1173 17.095 17.1094Z" fill="white" stroke="white" stroke-width="0.1"/>
<rect x="0.75" y="0.75" width="21.6311" height="21.6311" rx="6.25" stroke="white" stroke-width="1.5"/>
</svg>
