<svg width="24" height="24" viewBox="0 0 24 24" fill="none" xmlns="http://www.w3.org/2000/svg">
 
<path d="M 16.793 11.897 L 16.794 11.897 C 16.881 11.873 16.971 11.812 17.043 11.74 C 17.115 11.669 17.175 11.58 17.2 11.492 C 17.204 11.48 17.208 11.463 17.21 11.445 C 17.213 11.427 17.215 11.403 17.217 11.377 C 17.221 11.324 17.225 11.256 17.228 11.177 C 17.234 11.018 17.236 10.815 17.236 10.606 L 17.236 9.897 L 17.946 9.897 C 18.155 9.897 18.358 9.892 18.518 9.886 C 18.597 9.883 18.667 9.879 18.721 9.875 L 18.838 9.862 L 18.84 9.861 C 18.934 9.834 19.028 9.763 19.102 9.68 C 19.176 9.596 19.235 9.492 19.252 9.392 C 19.269 9.291 19.245 9.175 19.197 9.073 C 19.161 8.996 19.11 8.923 19.048 8.866 L 18.984 8.815 C 18.956 8.797 18.929 8.779 18.892 8.767 C 18.856 8.754 18.812 8.746 18.75 8.741 C 18.627 8.731 18.417 8.73 18.017 8.73 L 17.236 8.73 L 17.236 7.987 C 17.236 7.61 17.236 7.408 17.226 7.282 C 17.221 7.219 17.214 7.174 17.202 7.134 C 17.191 7.094 17.176 7.061 17.158 7.025 L 17.157 7.024 C 17.134 6.979 17.1 6.93 17.065 6.888 C 17.029 6.846 16.988 6.806 16.95 6.782 L 16.949 6.783 C 16.865 6.727 16.753 6.699 16.645 6.697 C 16.536 6.696 16.422 6.721 16.337 6.775 C 16.283 6.81 16.235 6.841 16.198 6.884 C 16.16 6.928 16.135 6.981 16.118 7.057 C 16.086 7.202 16.08 7.448 16.07 7.913 L 16.054 8.715 L 15.253 8.73 C 14.848 8.739 14.632 8.744 14.506 8.756 C 14.442 8.762 14.397 8.77 14.361 8.782 C 14.325 8.795 14.299 8.811 14.273 8.829 L 14.272 8.83 C 13.935 9.072 13.966 9.592 14.329 9.803 L 14.426 9.846 C 14.464 9.857 14.511 9.865 14.575 9.87 C 14.705 9.881 14.916 9.885 15.297 9.89 L 16.07 9.899 L 16.07 10.666 C 16.07 10.994 16.073 11.205 16.08 11.343 C 16.088 11.478 16.1 11.553 16.126 11.603 L 16.179 11.684 C 16.239 11.76 16.321 11.82 16.41 11.859 C 16.53 11.912 16.667 11.931 16.793 11.897 Z" fill="white" stroke="white" stroke-width="0.1" style="stroke-width: 0.1;"></path>
<path d="M 8.707 9.893 C 9.795 9.893 10.353 9.892 10.659 9.873 C 10.812 9.863 10.908 9.848 10.976 9.825 C 11.047 9.8 11.087 9.766 11.13 9.727 L 11.178 9.678 C 11.399 9.422 11.344 9.009 11.051 8.815 L 10.942 8.74 L 10.929 8.73 L 6.486 8.73 L 6.473 8.74 L 6.363 8.815 L 6.309 8.857 C 6.047 9.079 6.027 9.493 6.284 9.727 L 6.352 9.781 C 6.376 9.797 6.403 9.812 6.439 9.825 C 6.507 9.848 6.602 9.863 6.755 9.873 C 7.061 9.892 7.619 9.893 8.707 9.893 Z" fill="white" stroke="white" stroke-width="0.1" style="stroke-width: 0.1;"></path>
<path d="M 10.413 18.66 C 10.575 18.66 10.715 18.603 10.815 18.502 C 10.916 18.402 10.973 18.262 10.973 18.1 C 10.973 18.052 10.968 18.001 10.961 17.956 C 10.954 17.914 10.944 17.871 10.931 17.844 C 10.925 17.833 10.914 17.819 10.903 17.806 C 10.891 17.791 10.875 17.772 10.855 17.749 C 10.814 17.705 10.759 17.645 10.692 17.575 C 10.559 17.434 10.38 17.25 10.189 17.058 L 9.527 16.395 L 10.179 15.746 C 10.367 15.558 10.544 15.377 10.677 15.237 C 10.743 15.167 10.8 15.106 10.841 15.06 C 10.861 15.037 10.879 15.017 10.892 15.001 C 10.903 14.987 10.914 14.972 10.92 14.961 C 10.937 14.929 10.95 14.882 10.959 14.835 C 10.968 14.787 10.973 14.734 10.973 14.688 C 10.973 14.526 10.916 14.386 10.815 14.286 C 10.715 14.185 10.575 14.128 10.413 14.128 C 10.367 14.128 10.314 14.133 10.266 14.142 C 10.219 14.151 10.172 14.164 10.14 14.181 C 10.128 14.187 10.114 14.198 10.1 14.21 C 10.084 14.223 10.064 14.24 10.041 14.26 C 9.995 14.301 9.934 14.358 9.864 14.424 C 9.724 14.557 9.543 14.734 9.355 14.922 L 8.706 15.574 L 8.043 14.912 C 7.851 14.721 7.667 14.542 7.526 14.409 C 7.456 14.342 7.396 14.287 7.352 14.246 C 7.329 14.226 7.31 14.21 7.295 14.198 L 7.257 14.17 C 7.187 14.134 7.081 14.124 6.982 14.13 C 6.883 14.136 6.777 14.159 6.706 14.202 L 6.705 14.203 C 6.655 14.233 6.596 14.287 6.553 14.34 L 6.516 14.392 C 6.47 14.467 6.445 14.574 6.441 14.676 C 6.438 14.778 6.453 14.885 6.494 14.961 C 6.5 14.973 6.512 14.987 6.524 15.001 C 6.536 15.017 6.553 15.037 6.573 15.06 C 6.614 15.106 6.671 15.167 6.737 15.237 C 6.871 15.377 7.047 15.558 7.235 15.746 L 7.886 16.395 L 7.226 17.058 C 7.034 17.25 6.855 17.434 6.722 17.575 C 6.655 17.645 6.6 17.705 6.56 17.749 C 6.54 17.772 6.523 17.791 6.511 17.806 C 6.5 17.819 6.489 17.833 6.483 17.844 C 6.47 17.871 6.46 17.914 6.453 17.956 C 6.446 18.001 6.441 18.052 6.441 18.1 C 6.441 18.262 6.499 18.402 6.599 18.502 C 6.699 18.602 6.839 18.66 7.001 18.66 C 7.048 18.66 7.101 18.655 7.149 18.646 C 7.195 18.637 7.243 18.624 7.274 18.607 C 7.286 18.601 7.3 18.59 7.315 18.578 C 7.33 18.566 7.35 18.548 7.373 18.528 C 7.419 18.487 7.48 18.43 7.55 18.364 C 7.69 18.23 7.871 18.054 8.06 17.866 L 8.707 17.215 L 9.371 17.875 C 9.563 18.067 9.747 18.246 9.888 18.379 C 9.958 18.446 10.018 18.501 10.063 18.541 C 10.085 18.561 10.104 18.578 10.119 18.59 C 10.132 18.601 10.146 18.612 10.157 18.618 C 10.184 18.631 10.227 18.641 10.27 18.648 C 10.314 18.655 10.365 18.66 10.413 18.66 Z" fill="white" stroke="white" stroke-width="0.1" style="stroke-width: 0.1;"></path>
<path d="M 16.684 15.421 C 17.763 15.416 18.314 15.413 18.607 15.403 C 18.752 15.398 18.837 15.392 18.892 15.381 C 18.92 15.375 18.942 15.368 18.961 15.359 C 18.979 15.351 18.992 15.341 19.004 15.332 L 19.005 15.332 C 19.361 15.074 19.323 14.528 18.928 14.338 L 18.929 14.337 C 18.892 14.318 18.859 14.303 18.796 14.292 C 18.736 14.281 18.65 14.275 18.506 14.27 C 18.217 14.262 17.686 14.263 16.651 14.265 C 16.069 14.265 15.53 14.269 15.129 14.275 C 14.929 14.278 14.763 14.282 14.644 14.285 C 14.584 14.287 14.536 14.288 14.501 14.29 C 14.484 14.291 14.469 14.292 14.458 14.293 C 14.449 14.294 14.437 14.295 14.429 14.297 L 14.426 14.297 C 14.178 14.375 14.024 14.621 14.045 14.898 C 14.054 15.004 14.079 15.092 14.127 15.168 C 14.176 15.243 14.245 15.302 14.336 15.354 L 14.337 15.354 C 14.37 15.373 14.4 15.388 14.46 15.398 C 14.517 15.408 14.603 15.415 14.749 15.419 C 15.043 15.426 15.595 15.424 16.684 15.421 Z" fill="white" stroke="white" stroke-width="0.1" style="stroke-width: 0.1;"></path>
<path d="M 18.502 18.519 C 18.648 18.515 18.735 18.509 18.795 18.498 C 18.857 18.488 18.89 18.473 18.927 18.455 L 18.928 18.454 C 19.221 18.31 19.34 17.978 19.19 17.692 L 19.191 17.691 C 19.168 17.646 19.136 17.598 19.103 17.557 C 19.071 17.517 19.036 17.48 19.006 17.457 L 19.007 17.456 C 18.994 17.447 18.98 17.437 18.961 17.428 C 18.942 17.419 18.92 17.413 18.892 17.408 C 18.837 17.397 18.752 17.39 18.606 17.385 C 18.313 17.376 17.76 17.374 16.677 17.37 C 15.687 17.365 15.132 17.365 14.812 17.371 C 14.653 17.375 14.55 17.379 14.481 17.387 C 14.446 17.391 14.419 17.396 14.396 17.402 L 14.34 17.422 C 14.165 17.508 14.064 17.671 14.046 17.889 C 14.037 17.999 14.048 18.094 14.087 18.179 C 14.126 18.264 14.191 18.336 14.281 18.406 L 14.401 18.499 L 14.415 18.51 L 14.431 18.51 L 16.597 18.52 C 17.666 18.525 18.209 18.527 18.502 18.519 Z" fill="white" stroke="white" stroke-width="0.1" style="stroke-width: 0.1;"></path>
<path d="M 10.112 22.49 L 14.473 22.49 L 14.62 22.395 C 14.738 22.317 14.815 22.235 14.865 22.141 C 14.914 22.047 14.939 21.932 14.939 21.782 C 14.939 21.632 14.914 21.517 14.865 21.423 C 14.815 21.329 14.738 21.247 14.62 21.169 L 14.474 21.074 L 10.153 21.053 C 7.8 21.04 6.691 21.038 6.095 21.009 C 5.797 20.994 5.621 20.973 5.479 20.939 C 5.338 20.905 5.232 20.858 5.083 20.802 C 4.69 20.653 4.292 20.373 3.956 20.039 C 3.621 19.705 3.344 19.31 3.199 18.925 C 3.14 18.771 3.09 18.667 3.055 18.506 C 3.02 18.345 3 18.126 2.987 17.725 C 2.96 16.921 2.964 15.358 2.964 12.003 C 2.964 8.649 2.96 7.086 2.987 6.282 C 3 5.881 3.02 5.661 3.055 5.5 C 3.073 5.42 3.095 5.354 3.119 5.288 L 3.199 5.081 C 3.504 4.265 4.339 3.47 5.202 3.162 C 5.351 3.109 5.465 3.067 5.652 3.036 C 5.835 3.006 6.088 2.987 6.517 2.975 C 7.377 2.951 8.966 2.955 12.18 2.961 C 15.454 2.967 16.969 2.966 17.746 2.994 C 18.134 3.008 18.345 3.03 18.501 3.066 C 18.657 3.101 18.76 3.151 18.914 3.209 C 19.258 3.335 19.751 3.667 20.041 3.966 L 20.04 3.967 C 20.343 4.266 20.663 4.748 20.788 5.081 C 20.846 5.235 20.895 5.345 20.929 5.486 C 20.964 5.63 20.985 5.807 20.999 6.106 C 21.029 6.702 21.031 7.812 21.043 10.18 C 21.054 12.164 21.061 13.259 21.074 13.872 C 21.08 14.179 21.088 14.363 21.097 14.476 C 21.107 14.591 21.117 14.619 21.121 14.627 L 21.122 14.628 C 21.162 14.7 21.223 14.775 21.291 14.839 C 21.361 14.904 21.432 14.951 21.488 14.972 L 21.489 14.972 C 21.552 14.996 21.663 15.011 21.783 15.009 C 21.903 15.007 22.012 14.988 22.076 14.961 L 22.079 14.96 C 22.145 14.933 22.23 14.868 22.306 14.779 C 22.363 14.714 22.41 14.642 22.44 14.577 L 22.463 14.515 C 22.464 14.513 22.465 14.508 22.466 14.497 C 22.468 14.483 22.469 14.463 22.471 14.438 C 22.474 14.387 22.477 14.316 22.48 14.223 C 22.485 14.037 22.488 13.766 22.491 13.401 C 22.493 13.037 22.494 12.579 22.494 12.018 L 22.489 10.015 C 22.482 8.052 22.477 6.953 22.465 6.313 C 22.454 5.669 22.436 5.498 22.409 5.385 C 21.924 3.423 20.601 2.08 18.682 1.605 C 18.52 1.564 18.432 1.542 17.606 1.53 C 16.78 1.519 15.226 1.517 12.138 1.513 C 9.613 1.509 8.043 1.508 7.069 1.515 C 6.09 1.522 5.72 1.536 5.586 1.557 C 3.615 1.869 2.018 3.399 1.583 5.395 L 1.583 5.396 L 1.56 5.524 C 1.539 5.674 1.526 5.925 1.518 6.578 C 1.508 7.447 1.506 9.02 1.506 12.003 C 1.506 14.989 1.508 16.561 1.518 17.43 C 1.526 18.083 1.539 18.334 1.56 18.484 L 1.583 18.611 C 1.765 19.451 2.129 20.177 2.677 20.809 L 2.923 21.073 C 3.614 21.76 4.426 22.206 5.385 22.413 L 5.386 22.413 C 5.541 22.448 5.685 22.468 6.313 22.479 C 6.941 22.489 8.044 22.49 10.112 22.49 Z" fill="white" stroke="#3276FA" stroke-width="0.2" style="stroke-width: 0.2;"></path>
<path d="M 10.112 22.491 L 14.473 22.491 L 14.62 22.395 C 14.738 22.317 14.816 22.235 14.865 22.141 C 14.914 22.047 14.939 21.933 14.939 21.783 C 14.939 21.632 14.914 21.517 14.865 21.423 C 14.816 21.33 14.738 21.248 14.62 21.169 L 14.474 21.075 L 10.153 21.053 C 7.8 21.041 6.691 21.038 6.095 21.009 C 5.797 20.995 5.621 20.973 5.479 20.939 C 5.339 20.905 5.232 20.858 5.084 20.802 C 4.691 20.653 4.292 20.374 3.957 20.04 C 3.622 19.706 3.344 19.311 3.199 18.925 C 3.141 18.771 3.09 18.667 3.055 18.506 C 3.021 18.345 3 18.126 2.987 17.725 C 2.961 16.921 2.965 15.358 2.965 12.003 C 2.965 8.65 2.961 7.087 2.987 6.283 C 3 5.881 3.021 5.662 3.055 5.501 C 3.073 5.42 3.095 5.354 3.119 5.289 L 3.199 5.082 C 3.504 4.265 4.339 3.47 5.202 3.163 C 5.351 3.11 5.466 3.067 5.652 3.037 C 5.836 3.006 6.088 2.987 6.517 2.975 C 7.377 2.951 8.966 2.955 12.18 2.962 C 15.454 2.968 16.97 2.967 17.747 2.995 C 18.135 3.009 18.345 3.031 18.502 3.066 C 18.658 3.101 18.761 3.152 18.915 3.21 C 19.258 3.336 19.751 3.667 20.042 3.966 L 20.041 3.967 C 20.344 4.266 20.663 4.748 20.789 5.082 C 20.847 5.236 20.895 5.345 20.93 5.487 C 20.964 5.63 20.985 5.807 21 6.106 C 21.029 6.703 21.031 7.813 21.044 10.18 C 21.054 12.165 21.062 13.26 21.074 13.873 C 21.08 14.179 21.088 14.363 21.097 14.476 C 21.107 14.592 21.118 14.62 21.122 14.627 L 21.123 14.628 C 21.162 14.7 21.223 14.776 21.292 14.839 C 21.361 14.904 21.432 14.951 21.488 14.972 L 21.489 14.972 C 21.552 14.997 21.663 15.011 21.783 15.009 C 21.903 15.007 22.013 14.989 22.076 14.961 L 22.079 14.96 C 22.146 14.934 22.23 14.868 22.306 14.78 C 22.363 14.714 22.41 14.643 22.44 14.578 L 22.464 14.515 C 22.464 14.514 22.465 14.508 22.467 14.498 C 22.468 14.483 22.47 14.463 22.472 14.438 C 22.475 14.387 22.478 14.316 22.48 14.223 C 22.486 14.037 22.489 13.767 22.491 13.402 C 22.493 13.037 22.494 12.579 22.494 12.018 L 22.489 10.015 C 22.483 8.053 22.477 6.953 22.466 6.313 C 22.454 5.669 22.437 5.499 22.409 5.385 C 21.925 3.423 20.601 2.081 18.682 1.605 C 18.521 1.565 18.432 1.543 17.606 1.531 C 16.78 1.519 15.226 1.517 12.138 1.513 C 9.613 1.509 8.043 1.508 7.069 1.515 C 6.09 1.522 5.72 1.536 5.587 1.557 C 3.615 1.87 2.019 3.4 1.584 5.395 L 1.584 5.396 L 1.56 5.524 C 1.54 5.674 1.526 5.925 1.518 6.579 C 1.508 7.448 1.507 9.02 1.507 12.003 C 1.507 14.989 1.508 16.562 1.518 17.43 C 1.526 18.084 1.54 18.334 1.56 18.484 L 1.584 18.612 C 1.765 19.451 2.129 20.178 2.678 20.809 L 2.924 21.074 C 3.615 21.761 4.427 22.206 5.386 22.414 C 5.541 22.448 5.686 22.469 6.313 22.479 C 6.941 22.489 8.044 22.491 10.112 22.491 Z" fill="white" stroke="#3276FA" stroke-width="0.2" style="transform-box: fill-box; transform-origin: 50% 50%; stroke-width: 0.2;" transform="matrix(0, 1, -1, 0, -0.000001, -0.000004)"></path>
</svg>
