<svg width="21" height="22" viewBox="0 0 21 22" fill="none" xmlns="http://www.w3.org/2000/svg">
<path d="M10.2533 0.0488634C10.1933 0.0761118 7.89899 1.59113 5.15779 3.41677C0.754442 6.35416 0.160425 6.76288 0.0786799 6.94272C-0.0957103 7.30785 0.024183 7.70023 0.394762 7.97271L0.541904 8.08716H10.5094H20.4769L20.624 7.97271C20.902 7.77108 21 7.58579 21 7.2806C21 7.08986 20.9619 6.94272 20.8965 6.83918C20.7875 6.68114 11.147 0.212354 10.8037 0.0706625C10.602 -0.0165329 10.4276 -0.0219822 10.2533 0.0488634ZM14.7983 4.09253L18.9837 6.88823L14.7492 6.90458C12.4168 6.91002 8.60745 6.91002 6.28043 6.90458L2.04602 6.88823L6.26408 4.07074C8.58565 2.52302 10.5094 1.26414 10.5475 1.27504C10.5802 1.28594 12.4931 2.55572 14.7983 4.09253Z" fill="white"/>
<path d="M3.22868 9.36229C3.13603 9.42224 3.03249 9.54758 2.99434 9.64567C2.95074 9.76557 2.93439 10.7901 2.93439 13.0572C2.93439 16.654 2.92894 16.5777 3.28862 16.7466C3.51206 16.8556 3.55566 16.8556 3.77909 16.7466C4.13877 16.5777 4.13332 16.654 4.13332 13.0517C4.13332 9.48763 4.13332 9.50943 3.81179 9.34594C3.5938 9.2315 3.43576 9.23695 3.22868 9.36229Z" fill="white"/>
<path d="M7.88274 9.35162C7.80644 9.40067 7.7138 9.49876 7.6811 9.56961C7.6375 9.6568 7.62115 10.7794 7.62115 13.0683C7.62115 16.3654 7.62115 16.4417 7.73015 16.5779C7.89364 16.785 8.16612 16.8613 8.40046 16.7578C8.78194 16.5997 8.77104 16.7305 8.75469 12.9648L8.73834 9.58596L8.59665 9.44427C8.41681 9.26443 8.08438 9.22083 7.88274 9.35162Z" fill="white"/>
<path d="M12.6073 9.30802C12.5474 9.33527 12.4493 9.41157 12.3894 9.47696C12.2858 9.59686 12.2804 9.68405 12.264 12.9702C12.2477 16.7305 12.2368 16.5997 12.6182 16.7578C12.8526 16.8613 13.1251 16.785 13.2886 16.5779C13.3975 16.4417 13.3975 16.3654 13.3975 13.0683C13.3975 10.5724 13.3812 9.66225 13.3321 9.55871C13.2232 9.31347 12.8853 9.19903 12.6073 9.30802Z" fill="white"/>
<path d="M17.1801 9.36229C17.0874 9.42224 16.9839 9.54758 16.9458 9.64567C16.9022 9.76557 16.8858 10.7901 16.8858 13.0572C16.8858 16.654 16.8804 16.5777 17.24 16.7466C17.4635 16.8556 17.5071 16.8556 17.7305 16.7466C18.0902 16.5777 18.0847 16.654 18.0847 13.0517C18.0847 9.48763 18.0847 9.50943 17.7632 9.34594C17.5452 9.2315 17.3872 9.23695 17.1801 9.36229Z" fill="white"/>
<path d="M1.80052 18.0817C1.44084 18.2071 1.16291 18.425 0.934021 18.7629C0.699684 19.1063 0.628838 19.3951 0.656086 19.8583C0.699684 20.4905 1.04301 21.0082 1.61523 21.2861L1.92586 21.4387H10.5091H19.0924L19.403 21.2861C19.7409 21.1226 20.0297 20.8338 20.2205 20.4741C20.324 20.2779 20.3458 20.158 20.3458 19.7221C20.3458 19.2861 20.324 19.1662 20.2205 18.97C20.0297 18.6103 19.7409 18.3215 19.403 18.158L19.0924 18.0054L10.5909 17.9945C2.46538 17.9836 2.07846 17.9836 1.80052 18.0817ZM18.8744 19.1989C19.0651 19.2806 19.2286 19.5204 19.2286 19.7221C19.2286 19.9237 19.0651 20.1635 18.8744 20.2452C18.5965 20.3597 2.42179 20.3597 2.14385 20.2452C1.95311 20.1635 1.78962 19.9237 1.78962 19.7221C1.78962 19.5259 1.95311 19.2806 2.13295 19.2043C2.39454 19.0899 18.5965 19.0845 18.8744 19.1989Z" fill="white"/>
</svg>
