<svg width="22" height="19" viewBox="0 0 22 19" fill="none" xmlns="http://www.w3.org/2000/svg">
<path d="M2.38282 0.0345669C1.24911 0.221918 0.360394 1.03377 0.0769649 2.12906C0.00971067 2.38847 0.00010292 3.08022 0.00010292 7.94175C0.00010292 14.0138 -0.0143087 13.7016 0.297943 14.3453C0.528529 14.8209 1.07617 15.3493 1.59019 15.5895C1.81116 15.6952 2.12342 15.8009 2.27714 15.8297C2.46449 15.8633 3.64144 15.8826 5.65426 15.8826H8.74316L8.35885 16.6512L7.97454 17.4198H6.83121C5.74073 17.4198 5.68309 17.4246 5.50534 17.5303C4.98172 17.8233 4.99613 18.5919 5.52936 18.861C5.70711 18.957 5.83681 18.957 11.001 18.957C16.1651 18.957 16.2948 18.957 16.4726 18.861C17.0154 18.5871 17.0154 17.7897 16.4726 17.5159C16.3045 17.4294 16.1892 17.4198 15.1563 17.4198H14.0274L13.6431 16.6512L13.2588 15.8826H16.3669C19.7921 15.8826 19.8401 15.8777 20.4454 15.5895C20.897 15.3733 21.4926 14.7825 21.704 14.3453C22.0163 13.7016 22.0019 14.0138 22.0019 7.94175C22.0019 3.08022 21.9922 2.38847 21.925 2.12906C21.6752 1.15387 20.9354 0.399662 19.9362 0.08741C19.6912 0.0153522 19.0042 0.00574493 11.1451 0.000940323C6.45651 -0.00386429 2.51253 0.0105476 2.38282 0.0345669ZM19.4558 1.57181C19.7825 1.64387 20.1187 1.87926 20.2965 2.16268L20.4406 2.39807L20.455 7.86969L20.4646 13.3413L20.3637 13.5815C20.3013 13.7208 20.1716 13.8986 20.0467 14.009C19.6335 14.3741 20.3589 14.3453 11.001 14.3453C1.64303 14.3453 2.36841 14.3741 1.95528 14.009C1.83038 13.8986 1.70067 13.7208 1.63822 13.5815L1.53734 13.3413L1.54695 7.86969L1.56136 2.39807L1.70548 2.16749C1.87842 1.88406 2.16665 1.67269 2.48371 1.58622C2.79115 1.50455 19.0715 1.49014 19.4558 1.57181Z" fill="#3276FA"/>
</svg>
