<svg width="22" height="22" viewBox="0 0 22 22" fill="none" xmlns="http://www.w3.org/2000/svg">
<path d="M8.70508 21.0808H13.0664L13.2129 20.9851C13.331 20.907 13.4087 20.825 13.458 20.7312C13.5073 20.6372 13.5322 20.5229 13.5322 20.3728C13.5322 20.2224 13.5074 20.1075 13.458 20.0134C13.4087 19.9196 13.331 19.8377 13.2129 19.7595L13.0674 19.6648L8.74609 19.6433C6.39306 19.6309 5.28442 19.6285 4.68848 19.5994C4.39007 19.5848 4.21401 19.5631 4.07227 19.5291C3.93156 19.4953 3.82489 19.4484 3.67676 19.3923C3.28355 19.2432 2.88484 18.9636 2.5498 18.6296C2.21474 18.2956 1.93708 17.9008 1.79199 17.5154C1.73371 17.3613 1.68334 17.2575 1.64844 17.0964C1.61361 16.9355 1.5933 16.7165 1.58008 16.3152C1.55359 15.5112 1.55762 13.9482 1.55762 10.5935C1.55762 7.23958 1.55361 5.67687 1.58008 4.8728C1.59331 4.4712 1.61357 4.25152 1.64844 4.09058C1.6659 4.01001 1.68782 3.94401 1.71191 3.87866L1.79199 3.67163C2.0974 2.85499 2.93247 2.06016 3.79492 1.75269C3.94388 1.69993 4.05876 1.65745 4.24512 1.62671C4.42878 1.59644 4.68096 1.57711 5.11035 1.56519C5.97 1.54131 7.55925 1.5453 10.7734 1.55151C14.0473 1.55773 15.5628 1.55667 16.3398 1.58472C16.7276 1.59872 16.9383 1.62087 17.0947 1.65601C17.2505 1.69103 17.3537 1.74162 17.5078 1.79956C17.8512 1.92576 18.3443 2.25738 18.6348 2.5564L18.6338 2.55737C18.9365 2.8565 19.2562 3.33823 19.3818 3.67163C19.4398 3.82567 19.4879 3.93495 19.5225 4.0769C19.5573 4.22039 19.5782 4.39716 19.5928 4.69604C19.6219 5.29255 19.6243 6.40262 19.6367 8.77026C19.6471 10.7549 19.6546 11.8498 19.667 12.4626C19.6732 12.7693 19.6809 12.9531 19.6904 13.0662C19.7002 13.1816 19.7107 13.2099 19.7148 13.2175L19.7158 13.2185C19.7553 13.2902 19.8162 13.3656 19.8848 13.4294C19.9543 13.4942 20.0253 13.5415 20.0811 13.5623H20.082C20.1454 13.5866 20.2561 13.6013 20.376 13.5994C20.4959 13.5974 20.6058 13.5789 20.6689 13.5515L20.6719 13.5505C20.7385 13.5236 20.8229 13.458 20.8994 13.3699C20.9564 13.3042 21.0033 13.2328 21.0332 13.1677L21.0566 13.1052C21.0569 13.1037 21.0583 13.0984 21.0596 13.0876C21.0612 13.0734 21.0628 13.0535 21.0645 13.0281C21.0677 12.9773 21.0706 12.9062 21.0732 12.8132C21.0785 12.6273 21.0817 12.3566 21.084 11.9919C21.0863 11.6274 21.0874 11.1693 21.0869 10.6082L21.082 8.60522C21.0758 6.64293 21.07 5.54338 21.0586 4.90308C21.0471 4.25911 21.0298 4.08869 21.002 3.97534C20.5175 2.01332 19.194 0.670703 17.2754 0.195068C17.1138 0.154659 17.0253 0.132763 16.1992 0.12085C15.3734 0.108949 13.8189 0.107415 10.7314 0.103271C8.20623 0.0991283 6.63638 0.0984972 5.66211 0.105225C4.68296 0.111988 4.31314 0.125943 4.17969 0.147217C2.20804 0.459689 0.611678 1.9899 0.176758 3.98511V3.98608L0.15332 4.11401C0.132622 4.26436 0.11911 4.5154 0.111328 5.1687C0.100982 6.03761 0.0996094 7.61026 0.0996094 10.5935C0.0996094 13.579 0.100981 15.1519 0.111328 16.0203C0.119117 16.6738 0.132588 16.924 0.15332 17.074L0.176758 17.2019C0.35808 18.041 0.722005 18.7678 1.27051 19.3992L1.5166 19.6638C2.2076 20.3507 3.0197 20.7965 3.97852 21.0037H3.97949C4.1342 21.0385 4.27862 21.0587 4.90625 21.0691C5.53394 21.0794 6.63729 21.0808 8.70508 21.0808Z" fill="white" stroke="#3276FA" stroke-width="0.2"/>
<path d="M4.41101 5.67883C4.7344 6.1286 5.41226 6.17954 5.81335 5.77844C6.38225 5.21321 6.02295 4.25413 5.22351 4.2052H5.22156C5.07294 4.19347 4.93068 4.20991 4.84949 4.24036C4.29657 4.44847 4.06953 5.08342 4.34851 5.58118L4.41101 5.67883Z" fill="white" stroke="#3276FA" stroke-width="0.2"/>
<path d="M16.4617 5.91565L16.5955 5.83167L16.5965 5.83069C16.6515 5.7966 16.727 5.72615 16.7849 5.65881L16.8357 5.59436C16.8799 5.52901 16.9008 5.48586 16.9129 5.43713C16.9256 5.3854 16.9304 5.32068 16.9305 5.20764C16.9305 5.09422 16.9257 5.029 16.9129 4.97717C16.9068 4.95285 16.8987 4.9298 16.8865 4.90491L16.8357 4.81995C16.7801 4.73844 16.6697 4.62897 16.5965 4.58362H16.5955L16.4627 4.49963L12.493 4.49084C11.2687 4.48877 10.2557 4.49101 9.53885 4.4967C9.18056 4.49955 8.89653 4.50287 8.69705 4.50745C8.59729 4.50974 8.51897 4.51261 8.46365 4.51526C8.43591 4.51659 8.41427 4.51787 8.3992 4.51917C8.38037 4.5208 8.38005 4.52208 8.38651 4.52014C8.31318 4.54198 8.21476 4.60951 8.12479 4.70471C8.03558 4.79922 7.96748 4.90607 7.94412 4.99182H7.9451C7.86004 5.32096 7.99015 5.66046 8.26541 5.83069L8.26639 5.83167L8.40018 5.91565H16.4617Z" fill="white" stroke="#3276FA" stroke-width="0.2"/>
<path d="M16.4613 9.23047L16.5951 9.14648L16.5961 9.14551C16.6511 9.11148 16.7266 9.04101 16.7846 8.97363L16.8354 8.90918C16.8796 8.84377 16.9004 8.80071 16.9125 8.75195C16.9253 8.70021 16.9301 8.63554 16.9301 8.52246C16.9301 8.40899 16.9253 8.34383 16.9125 8.29199C16.9065 8.26764 16.8984 8.24465 16.8861 8.21973L16.8354 8.13477C16.7797 8.05324 16.6693 7.94374 16.5961 7.89844H16.5951L16.4623 7.81445L10.6488 7.80566C8.8425 7.80359 7.36878 7.80583 6.33633 7.81152C5.82006 7.81437 5.41384 7.81768 5.13223 7.82227C4.99164 7.82456 4.88247 7.8274 4.80606 7.83008C4.76773 7.83142 4.73785 7.83263 4.71719 7.83398C4.7075 7.83462 4.70048 7.83543 4.69571 7.83594C4.6227 7.85863 4.52577 7.92552 4.43692 8.01953C4.34772 8.11404 4.27962 8.22089 4.25626 8.30664H4.25723C4.17217 8.63578 4.30228 8.97528 4.57755 9.14551L4.57852 9.14648L4.71231 9.23047H16.4613Z" fill="white" stroke="#3276FA" stroke-width="0.2"/>
<path d="M8.17422 12.5453L8.30801 12.4613L8.30899 12.4603C8.36396 12.4263 8.4395 12.3558 8.49747 12.2885L8.54825 12.224C8.59249 12.1586 8.6133 12.1155 8.6254 12.0668C8.63819 12.015 8.64297 11.9504 8.64297 11.8373C8.64297 11.7238 8.63824 11.6586 8.6254 11.6068C8.61936 11.5825 8.6113 11.5595 8.59903 11.5345L8.54825 11.4496C8.49258 11.3681 8.38217 11.2586 8.30899 11.2133H8.30801L8.1752 11.1293L6.50528 11.1205C6.00645 11.1184 5.56778 11.1207 5.24454 11.1263C5.08282 11.1292 4.95025 11.1326 4.85391 11.1371C4.80594 11.1393 4.76778 11.1424 4.73965 11.1449C4.70852 11.1477 4.69817 11.1493 4.69962 11.1488L4.69864 11.1498L4.63907 11.1742C4.57641 11.2072 4.50463 11.2642 4.43692 11.3363C4.34775 11.4313 4.28073 11.5376 4.25723 11.6215C4.17217 11.9506 4.30228 12.2901 4.57755 12.4603L4.57852 12.4613L4.71231 12.5453H8.17422Z" fill="white" stroke="#3276FA" stroke-width="0.2"/>
<path d="M18.3087 21.089H18.3096C19.5751 21.0248 20.5886 20.2216 20.9786 18.9757V18.9747C21.0448 18.7641 21.0792 18.4718 21.0792 18.1749C21.0792 17.9522 21.0602 17.7327 21.0225 17.549L20.9786 17.3781C20.8623 17.0069 20.7883 16.8048 20.5225 16.4698C20.2504 16.1268 19.7806 15.6491 18.8692 14.7335C17.4206 13.274 16.9887 12.8629 16.5469 12.5519L16.3536 12.422C15.5912 11.9232 15.0476 11.735 13.2481 11.3751C12.5712 11.2381 12.2052 11.1663 11.9786 11.1368C11.7583 11.1082 11.6794 11.1215 11.5743 11.1505C11.4608 11.184 11.3413 11.2793 11.2491 11.4122C11.1569 11.5451 11.1007 11.7021 11.1006 11.8409C11.1006 11.8573 11.1077 11.9113 11.1231 12.005C11.1379 12.0946 11.1594 12.2125 11.1856 12.3497C11.2379 12.6242 11.3086 12.975 11.3839 13.3322C11.4972 13.8702 11.6193 14.4172 11.6993 14.7404L11.7637 14.9806C11.9739 15.6432 12.28 16.222 12.709 16.7775L12.9005 17.0138C13.1564 17.3126 14.0221 18.1862 14.8604 19.0079C15.2789 19.4181 15.6895 19.8136 16.0108 20.1163C16.1715 20.2677 16.3094 20.3959 16.4151 20.4904C16.4679 20.5376 16.5123 20.5759 16.5469 20.6046C16.5833 20.6348 16.6048 20.6503 16.6133 20.6554L16.6124 20.6564C17.1766 20.9867 17.7046 21.1209 18.3087 21.089ZM18.169 19.6232C18.0254 19.6232 17.9023 19.6253 17.7764 19.5929C17.6475 19.5596 17.522 19.4923 17.3594 19.3663C17.039 19.1178 16.543 18.6166 15.5499 17.6173C13.9767 16.0317 13.7822 15.825 13.5753 15.4757H13.5743C13.2649 14.9418 13.1255 14.549 12.9542 13.7257V13.7247C12.9148 13.528 12.8781 13.3441 12.8516 13.2072C12.8384 13.1389 12.8279 13.0815 12.8204 13.0402C12.8166 13.0197 12.8137 13.0022 12.8116 12.9894C12.8106 12.9832 12.8093 12.9776 12.8087 12.9728L12.8067 12.9513L12.8096 12.9249C12.8116 12.9137 12.8153 12.9002 12.8223 12.8868C12.839 12.8557 12.8657 12.8372 12.8917 12.8282C12.9143 12.8204 12.9374 12.8194 12.9561 12.8195C12.976 12.8195 12.9991 12.8213 13.0245 12.8243C13.0739 12.8304 13.1439 12.8424 13.2422 12.8615L13.6319 12.9406C14.6414 13.1533 15.0066 13.2856 15.6212 13.6798C15.6855 13.7213 15.7917 13.8088 15.9229 13.9249C16.0561 14.0427 16.2207 14.1949 16.4053 14.3693C16.7749 14.7182 17.2264 15.1586 17.668 15.5997C18.1097 16.0409 18.5427 16.4838 18.8751 16.8361C19.0411 17.012 19.1829 17.1658 19.2881 17.2863C19.3407 17.3465 19.3851 17.3994 19.419 17.4425C19.4511 17.4833 19.4793 17.5216 19.4942 17.5519C19.5773 17.7205 19.6183 17.9429 19.6221 18.1583C19.6259 18.3736 19.5921 18.5958 19.5157 18.7648C19.3815 19.0599 19.0909 19.3547 18.7969 19.4972H18.796C18.6946 19.5478 18.6152 19.5817 18.5196 19.6007C18.4257 19.6193 18.3202 19.6232 18.169 19.6232Z" fill="white" stroke="#3276FA" stroke-width="0.2"/>
</svg>
