<svg width="24" height="28" viewBox="0 0 24 28" fill="none" xmlns="http://www.w3.org/2000/svg">
<path d="M11.2145 0.0973217C11.1459 0.148761 11.0601 0.268787 11.0316 0.354519C10.9516 0.565993 10.9516 2.49783 11.0316 2.72646C11.1516 3.08082 11.5745 3.18941 11.866 2.94364L12.0261 2.80647V1.53763V0.268787L11.866 0.131615C11.6774 -0.0284195 11.3974 -0.0455658 11.2145 0.0973217Z" fill="white"/>
<path d="M3.44148 3.29808C3.2643 3.43526 3.18428 3.67531 3.25858 3.8582C3.31574 4.02395 4.73318 5.52142 4.93323 5.63573C5.24186 5.81291 5.71054 5.56714 5.71054 5.22421C5.71054 4.96701 5.57336 4.78983 4.75605 3.97823C4.04161 3.27522 3.93873 3.19521 3.76155 3.19521C3.65295 3.19521 3.51007 3.24093 3.44148 3.29808Z" fill="white"/>
<path d="M18.2446 4.06973C17.4273 4.88705 17.3701 4.96135 17.3701 5.16139C17.3701 5.45289 17.6216 5.71008 17.9017 5.71008C18.1303 5.71008 18.2332 5.62435 19.1934 4.61271C19.7935 3.984 19.8278 3.93256 19.8278 3.70966C19.8278 3.40673 19.622 3.19526 19.3191 3.19526C19.1305 3.19526 19.0448 3.26385 18.2446 4.06973Z" fill="white"/>
<path d="M10.1972 3.80105C5.73914 4.57836 2.86995 8.99073 3.96733 13.3745C4.39028 15.0663 5.36191 16.5238 6.83651 17.7012C7.46522 18.1984 7.55667 18.3813 7.59668 19.2558C7.63668 19.9988 7.72242 20.2446 8.03677 20.5075C8.14536 20.5932 8.32826 20.6961 8.44829 20.7361C8.60261 20.7818 9.61425 20.799 11.7804 20.799C14.8497 20.799 14.9011 20.799 15.0497 20.919C15.2326 21.0619 15.2497 21.3477 15.0897 21.5477L14.9811 21.6849L12.0433 21.7134C8.75692 21.7477 8.91696 21.7249 8.42542 22.1764C8.11107 22.4679 7.96818 22.7251 7.89388 23.1309C7.77386 23.8053 8.08249 24.5426 8.63118 24.8913C9.08271 25.177 9.32847 25.1999 11.6833 25.1999C14.0266 25.1999 14.0723 25.2056 14.2152 25.5028C14.301 25.6857 14.2667 25.8458 14.0952 26.0001C13.9809 26.1087 13.8837 26.1144 11.9862 26.1144C9.84859 26.1144 9.71141 26.1315 9.51709 26.4059C9.39706 26.5773 9.39706 26.966 9.51709 27.1375C9.71141 27.4118 9.84859 27.429 11.9576 27.429C14.1352 27.429 14.381 27.4004 14.8325 27.0746C15.3012 26.7374 15.5355 26.2687 15.5412 25.6514C15.5412 25.0056 15.1754 24.4283 14.5524 24.1025C14.3181 23.9768 14.2324 23.9711 11.8833 23.9253C9.2256 23.8739 9.24274 23.8796 9.16844 23.5367C9.12272 23.3252 9.27132 23.0795 9.48851 23.0223C9.56281 22.9994 10.8717 22.9823 12.3977 22.9766L15.1697 22.9709L15.5127 22.8108C16.1471 22.5079 16.4843 21.9706 16.4843 21.2562C16.4843 20.5703 16.1471 20.0102 15.5584 19.713L15.284 19.5701L12.1005 19.553L8.91124 19.5416V19.2672C8.90553 18.4556 8.66548 17.7183 8.24824 17.2611C8.13393 17.1296 7.77386 16.8038 7.45379 16.5466C6.33355 15.6207 5.58482 14.4662 5.22474 13.1116C5.0247 12.3572 4.96754 11.1855 5.099 10.4253C5.51052 8.06482 7.1623 6.1044 9.3742 5.34423C12.4834 4.28115 15.9013 5.65287 17.3359 8.5392C17.8789 9.62515 18.0846 10.5911 18.0389 11.797C17.9646 13.7232 17.0958 15.4092 15.5298 16.6609C15.084 17.021 14.9754 17.2439 15.084 17.5754C15.164 17.8098 15.4269 17.9984 15.6898 17.9984C15.9527 17.9984 16.3528 17.7069 17.0616 16.9982C18.2161 15.8493 18.9191 14.5176 19.2392 12.883C19.3878 12.1114 19.3706 10.774 19.2049 10.0024C18.7533 7.88763 17.6331 6.19584 15.9127 5.02417C15.044 4.43547 13.8952 3.97251 12.8607 3.80105C12.1919 3.68674 10.8317 3.68674 10.1972 3.80105Z" fill="white"/>
<path d="M0.338076 11.0311C-0.0105699 11.1683 -0.107734 11.5798 0.132318 11.8656L0.26949 12.0256H1.53833H2.80718L2.94435 11.8656C3.19011 11.5741 3.08152 11.1512 2.72716 11.0311C2.50425 10.9511 0.532403 10.9568 0.338076 11.0311Z" fill="white"/>
<path d="M20.3706 11.0082C20.0506 11.0882 19.8734 11.4712 20.022 11.7569C20.1649 12.037 20.3192 12.0599 21.6223 12.0427L22.8112 12.0256L22.9483 11.8655C23.1941 11.574 23.0855 11.1511 22.7311 11.0311C22.5597 10.9682 20.605 10.9511 20.3706 11.0082Z" fill="white"/>
</svg>
