<svg width="24" height="23" viewBox="0 0 24 23" fill="none" xmlns="http://www.w3.org/2000/svg">
<path d="M18.1868 0.0131905C17.9991 0.0507469 17.8676 0.233834 17.2151 1.36522C16.5297 2.55294 16.4733 2.70317 16.6189 2.97545C16.755 3.23365 17.1634 3.34163 17.4169 3.1914C17.5719 3.1022 17.5202 3.17732 18.2995 1.83468C18.9755 0.670427 19.0084 0.567147 18.83 0.276085C18.7032 0.0648305 18.4497 -0.0384495 18.1868 0.0131905Z" fill="white"/>
<path d="M10.99 1.22899C10.6614 1.31819 10.4079 1.46841 10.1497 1.72192C9.98536 1.88623 9.79758 2.22424 9.20137 3.43073C8.79294 4.25698 8.32818 5.16772 8.16388 5.44939C7.37519 6.8202 6.49262 7.83422 5.4739 8.52432C5.29551 8.64638 4.45988 9.144 3.61955 9.62754C1.58212 10.8059 1.35209 10.9702 0.924882 11.5241C0.286423 12.3504 -0.00463869 13.2142 5.58617e-05 14.2517C5.58617e-05 15.0967 0.2207 15.8384 0.676071 16.5379C1.12205 17.2233 1.64784 17.6834 2.42244 18.0543C3.04212 18.3547 3.38013 18.4345 4.10309 18.4627C4.73686 18.4908 5.07017 18.4486 5.58187 18.2796C5.74618 18.2279 5.88702 18.1951 5.89171 18.1998C5.9011 18.2092 6.37995 19.0401 6.95738 20.04C8.13101 22.0775 8.26716 22.2512 8.85397 22.5375C10.1544 23.176 11.6895 22.439 12.0228 21.0165C12.1073 20.6503 12.0604 20.0635 11.9195 19.7208C11.8538 19.5659 11.3562 18.6692 10.8116 17.7256C10.267 16.7867 9.83514 15.998 9.85391 15.9793C9.91494 15.9229 10.5816 15.6694 10.99 15.5521C12.2387 15.1906 13.4828 15.1295 15.8958 15.3126C17.3511 15.4253 17.9051 15.4206 18.2149 15.2986C18.351 15.2422 18.5529 15.1342 18.6562 15.0638C18.905 14.8948 19.2242 14.4582 19.3275 14.1437C19.4355 13.8292 19.4355 13.3175 19.3322 13.0076C19.29 12.8762 18.8768 12.1203 18.4168 11.3223L17.5811 9.87165L17.9614 9.49139C18.2431 9.21442 18.3886 9.02194 18.5154 8.77313C18.9895 7.81544 18.9238 6.731 18.3417 5.85312C18.06 5.4353 17.7314 5.14424 17.2713 4.90952C16.5483 4.54803 15.7503 4.48701 15.0226 4.74051C14.8348 4.80624 14.6752 4.85318 14.6752 4.84849C14.6705 4.84379 14.2997 4.19595 13.849 3.41665C13.3983 2.63266 12.9523 1.90031 12.8584 1.78764C12.3937 1.25716 11.6801 1.0459 10.99 1.22899ZM11.8679 2.45896C11.9571 2.52469 12.9805 4.25228 15.0883 7.90933C16.7878 10.8528 18.1961 13.3315 18.2196 13.416C18.3088 13.7212 18.1069 14.078 17.7783 14.2047C17.6938 14.2376 17.4966 14.247 17.2854 14.2282C17.0882 14.2141 16.4638 14.1672 15.8958 14.1249C14.5109 14.0216 12.8396 14.0216 12.0697 14.1249C11.2764 14.2376 10.4642 14.4488 9.83983 14.7023C9.55816 14.8197 9.29526 14.9183 9.2624 14.923C9.20137 14.9324 6.09358 9.61815 6.11705 9.55242C6.12644 9.53365 6.32361 9.37403 6.55365 9.19094C6.78837 9.01255 7.20149 8.63699 7.47378 8.35531C8.44085 7.35538 9.02298 6.44933 10.1497 4.15839C10.5628 3.31806 10.9384 2.5951 10.9806 2.54346C11.1825 2.31813 11.6097 2.27588 11.8679 2.45896ZM16.661 5.91884C17.0929 6.11132 17.4356 6.49627 17.5671 6.93287C17.7501 7.53846 17.6187 8.15814 17.2103 8.61351C17.1117 8.71679 17.0178 8.80599 16.999 8.80599C16.9568 8.80599 15.309 5.97048 15.309 5.90006C15.309 5.82026 15.6564 5.75923 16.0132 5.77331C16.2808 5.7827 16.4357 5.81556 16.661 5.91884ZM6.64284 12.8527C7.85403 14.9512 8.17326 15.538 8.12162 15.5708C7.1921 16.1436 5.45512 17.0919 5.19223 17.1764C4.74624 17.3172 3.77917 17.3266 3.38483 17.1905C2.291 16.8196 1.52109 16.0215 1.24881 14.9558C1.12675 14.4911 1.169 13.6367 1.338 13.1907C1.62906 12.3973 2.05627 11.9044 2.87781 11.4209C4.06084 10.7167 5.00914 10.1768 5.05139 10.1721C5.07956 10.1721 5.79313 11.3786 6.64284 12.8527ZM9.82105 18.3688C10.7975 20.0635 10.8679 20.1997 10.8867 20.4532C10.9571 21.4484 9.73185 21.993 9.06053 21.2606C8.93848 21.1292 6.95268 17.7209 6.95268 17.6458C6.95268 17.6177 8.67089 16.5896 8.76478 16.552C8.76947 16.552 9.24362 17.3688 9.82105 18.3688Z" fill="white"/>
<path d="M21.5998 3.53395C21.3744 3.61845 19.2994 4.84842 19.1961 4.96109C19.0882 5.07376 19.0647 5.14418 19.0647 5.32727C19.0647 5.60894 19.2196 5.8202 19.4825 5.9C19.7079 5.96573 19.7501 5.94695 20.8956 5.28502C22.3697 4.4353 22.3509 4.45408 22.3509 4.06913C22.3509 3.70295 21.9331 3.4072 21.5998 3.53395Z" fill="white"/>
<path d="M20.4494 8.28957C20.271 8.35999 20.1349 8.55716 20.1114 8.76841C20.088 9.01253 20.1631 9.16745 20.3743 9.30829C20.5292 9.41626 20.5574 9.41626 21.8672 9.41626C23.008 9.41626 23.2286 9.40687 23.3648 9.34115C23.6511 9.20501 23.7544 8.83883 23.5995 8.53368C23.4539 8.25201 23.3882 8.24262 21.8954 8.24732C21.1536 8.24732 20.5011 8.2661 20.4494 8.28957Z" fill="white"/>
</svg>
