<svg width="11" height="31" viewBox="0 0 11 31" fill="none" xmlns="http://www.w3.org/2000/svg">
<path d="M5.20025 28.7391H2.51683V16.8813C2.51683 13.8045 0.394733 11.8986 -3.00062 11.8986C-6.21799 11.8986 -7.97043 13.4914 -8.7782 14.5533C-9.66811 12.8107 -11.4069 11.885 -13.8028 11.8986C-16.1029 11.8986 -18.1565 12.7427 -19.5256 14.213L-19.5667 12.5248V12.3887H-26.6723V13.5867H-23.7698V28.7255H-26.6312V29.9236H-16.9654V28.7255H-19.4297V20.3665C-19.3476 17.9296 -19.2381 16.364 -18.3619 15.166C-17.6089 14.1721 -16.4041 13.5459 -15.2266 13.5459C-13.7754 13.5459 -13.2551 14.635 -13.2004 14.7575C-12.8307 15.4518 -12.8307 16.6499 -12.8307 17.8071V28.7255H-15.4046V29.9236H-5.93048V28.7255H-8.40854V20.3665C-8.3264 17.9296 -8.21687 16.364 -7.34065 15.166C-6.58765 14.1721 -5.38285 13.5459 -4.20543 13.5459C-2.75419 13.5459 -2.23393 14.635 -2.17916 14.7575C-1.80951 15.4518 -1.80951 16.6499 -1.80951 17.8071V28.7255H-4.36971V29.9236H5.33716V28.7255H5.20025" fill="#231F20"/>
<path d="M8.59561 27.4863C8.95157 27.4863 9.45815 27.5407 9.45815 27.0642C9.45815 26.7103 9.15695 26.6558 8.84205 26.6558H8.13012V27.4863H8.59561ZM8.14381 28.9294H7.81523V26.3563H8.9242C9.59505 26.3563 9.82779 26.6014 9.82779 27.0642C9.82779 27.5543 9.47183 27.7449 9.03372 27.7858L9.80042 28.9294H9.43076L8.70514 27.7858H8.15751V28.9294H8.14381ZM10.5534 27.6496C10.5534 26.5605 9.75934 25.7709 8.66407 25.7709C7.5551 25.7709 6.76103 26.5605 6.76103 27.6496C6.76103 28.7524 7.5551 29.542 8.66407 29.542C9.75934 29.542 10.5534 28.7524 10.5534 27.6496ZM6.39137 27.6496C6.39137 26.4244 7.4045 25.4033 8.66407 25.4033C9.90994 25.4033 10.9231 26.4108 10.9231 27.6496C10.9231 28.8885 9.90994 29.9096 8.66407 29.9096C7.4045 29.9096 6.39137 28.9021 6.39137 27.6496Z" fill="#231F20"/>
</svg>
