<svg width="88" height="42" viewBox="0 0 88 42" fill="none" xmlns="http://www.w3.org/2000/svg">
<path d="M0 17.8V0.6H6.5C9.6 0.4 12.7 1.7 12.7 5.1C12.7 7 11.4 8.3 9.7 8.9C11.9 9.4 13.5 10.9 13.5 13.4C13.5 16.8 9.2 18.1 6.6 17.9H0V17.8ZM6.6 7.5C8.2 7.5 9 6.9 9 5.5C9 4.1 8.1 3.5 6.6 3.5H3.7V7.6H6.6V7.5ZM6.6 14.9C8.3 14.9 9.5 14.6 9.5 12.6C9.5 10.6 8.3 10.3 6.6 10.3H3.7V14.9H6.6ZM19.4 0.6V17.8H15.8V0.6H19.4ZM30.3 16.3C29.5 17.4 28.4 18.1 26.6 18.1C25.4 18.1 23.1 17.2 22.7 15.5C22.5 14.8 22.5 14 22.5 13.6V5.8H26.1V13C26.1 14.3 26.5 15.8 28.2 15.8C29.3 15.8 30.3 14.8 30.3 13V5.8H33.9V15.6C33.9 16.3 34 17 34 17.7H30.4L30.3 16.3ZM40.2 12.8C40.2 14.4 40.4 15.8 42.3 15.8C43.5 15.8 44.2 15.3 44.5 14.2H47.7C47.4 17.2 45.1 18.1 42.3 18.1C38.2 18.1 36.5 15.8 36.5 11.8C36.5 8.2 38.6 5.4 42.3 5.4C44.5 5.4 46.4 6.2 47.4 8.3C47.7 9 47.9 9.7 48 10.4C48.1 11.1 48.1 11.9 48.1 12.7H40.2V12.8ZM44.4 10.4C44.4 9.1 44 7.9 42.3 7.9C40.7 7.9 40.3 9.1 40.2 10.4H44.4ZM60.2 6.1C60.2 4.3 59.1 2.8 56.9 2.8C54.3 2.8 53.6 6.7 53.6 9.1C53.6 11.5 54.3 15.4 56.9 15.4C59.1 15.4 60.2 13.9 60.2 12.1H64.1C63.9 16.4 60.8 18 56.9 18C51.9 18 49.7 14.1 49.7 9C49.7 4 51.9 0 56.9 0C60.9 0 64 1.6 64.1 5.9H60.2V6.1ZM69.3 5.8L69.4 8C70.2 6.1 71.7 5.6 73.5 5.7V8.9H71.9C71.3 8.9 70.5 9.3 70.2 9.8C69.8 10.5 69.7 11.1 69.7 11.9V17.8H66.1V8.2C66.1 7.7 66 6.7 66 5.8H69.3ZM81.3 18.2C77.4 18.2 75 15.6 75 11.8C75 8 77.3 5.4 81.3 5.4C85.2 5.4 87.6 8 87.6 11.8C87.6 15.6 85.2 18.2 81.3 18.2ZM81.3 15.8C83.5 15.8 83.9 13.7 83.9 11.8C83.9 9.9 83.5 7.8 81.3 7.8C79.1 7.8 78.7 9.9 78.7 11.8C78.8 13.7 79.1 15.8 81.3 15.8ZM96.2 9C96.2 8.2 95.4 7.8 94.6 7.8C93.6 7.8 93.2 8.1 93.2 8.9C93.2 10.8 100.1 9.7 100.1 14.2C100.1 16.8 96.9 18.1 94.7 18.1C91.9 18.1 89.5 17 89.4 14.3H92.7C92.8 15.2 93.6 15.8 94.7 15.8C95.7 15.8 96.4 15.4 96.4 14.5C96.4 13.5 94.7 13.1 94 13C91.7 12.5 89.6 11.9 89.6 9.2C89.6 6.7 92.6 5.6 94.7 5.6C97.2 5.6 99.4 6.5 99.5 9.2H96.2V9ZM108.1 9C108.1 8.2 107.3 7.8 106.5 7.8C105.5 7.8 105.1 8.1 105.1 8.9C105.1 10.8 112 9.7 112 14.2C112 16.8 108.8 18.1 106.6 18.1C103.8 18.1 101.4 17 101.3 14.3H104.6C104.7 15.2 105.5 15.8 106.6 15.8C107.6 15.8 108.3 15.4 108.3 14.5C108.3 13.5 106.6 13.1 105.9 13C103.6 12.5 101.5 11.9 101.5 9.2C101.5 6.7 104.5 5.6 106.6 5.6C109.1 5.6 111.3 6.5 111.4 9.2H108.1V9ZM0 41.2V24H6.5C9.6 23.8 12.7 25.1 12.7 28.5C12.7 30.4 11.4 31.7 9.7 32.3C11.9 32.8 13.5 34.3 13.5 36.8C13.5 40.2 9.2 41.5 6.6 41.3H0V41.2ZM6.6 30.9C8.2 30.9 9 30.3 9 28.9C9 27.5 8.1 26.9 6.6 26.9H3.7V31L6.6 30.9ZM6.6 38.3C8.3 38.3 9.5 38 9.5 36C9.5 34 8.3 33.7 6.6 33.7H3.7V38.3H6.6ZM19.4 24V41.2H15.8V24H19.4ZM30.3 39.7C29.5 40.8 28.4 41.5 26.6 41.5C25.4 41.5 23.1 40.6 22.7 38.8C22.5 38.1 22.5 37.3 22.5 36.9V29.1H26.1V36.4C26.1 37.7 26.5 39.2 28.2 39.2C29.3 39.2 30.3 38.2 30.3 36.4V29.2H33.9V39C33.9 39.7 34 40.4 34 41.1H30.4L30.3 39.7ZM40.2 36.2C40.2 37.8 40.4 39.2 42.3 39.2C43.5 39.2 44.2 38.7 44.5 37.6H47.7C47.4 40.6 45.1 41.5 42.3 41.5C38.2 41.5 36.5 39.2 36.5 35.2C36.5 31.6 38.6 28.8 42.3 28.8C44.5 28.8 46.4 29.6 47.4 31.7C47.7 32.4 47.9 33.1 48 33.8C48.1 34.5 48.1 35.3 48.1 36.1L40.2 36.2ZM44.4 33.8C44.4 32.5 44 31.3 42.3 31.3C40.7 31.3 40.3 32.5 40.2 33.8H44.4ZM59.7 28.9C59.6 27.2 58.6 26.3 56.8 26.3C55.4 26.3 54.1 27 54.1 28.5C54.1 30.4 55.8 30.6 57.3 30.9C59.9 31.6 63.8 32.3 63.8 35.8C63.8 40.1 60.1 41.6 56.4 41.6C52.5 41.6 49.7 40.1 49.8 35.7H53.6C53.5 37.6 54.6 38.9 56.5 38.9C58 38.9 59.9 38.4 59.9 36.6C59.9 34.6 57.4 34.4 56 34C53.6 33.4 50.3 32.3 50.3 29.2C50.3 25.3 53.9 23.5 57.5 23.5C60.8 23.5 63.4 25.3 63.4 28.8L59.7 28.9ZM66.3 41.2V24H69.9V30.7C70.6 29.6 71.8 28.9 73.6 28.9C74.8 28.9 77.1 29.8 77.5 31.5C77.7 32.2 77.7 33 77.7 33.4V41.2H74.2V34C74.2 32.7 73.8 31.3 72.1 31.3C71 31.3 70 32.3 70 34V41.2H66.3ZM84.6 24V27.1H80.8V24H84.6ZM84.4 29.2V41.2H80.8V29.2H84.4ZM90.7 36.2C90.7 37.8 90.9 39.2 92.8 39.2C94 39.2 94.7 38.7 95 37.6H98.2C97.9 40.6 95.6 41.5 92.8 41.5C88.7 41.5 87 39.2 87 35.2C87 31.6 89.1 28.8 92.8 28.8C95 28.8 96.9 29.6 97.9 31.7C98.2 32.4 98.4 33.1 98.5 33.8C98.6 34.5 98.6 35.3 98.6 36.1L90.7 36.2ZM94.8 33.8C94.8 32.5 94.4 31.3 92.7 31.3C91.1 31.3 90.7 32.5 90.6 33.8H94.8ZM104.3 24V41.2H100.7V24H104.3ZM115.7 24H119.3V38.9C119.3 39.7 119.4 40.5 119.4 41.3H115.8C115.8 40.7 115.7 40.2 115.7 39.6C114.9 41 113.6 41.7 112 41.7C108.5 41.7 106.8 38.4 106.8 35.3C106.8 32.1 108.7 28.9 112.4 28.9C113.6 28.9 114.9 29.6 115.6 30.6L115.7 24ZM113.1 39.2C115 39.2 115.7 36.9 115.7 35.2C115.7 33.6 115.1 31.2 113.1 31.2C110.8 31.2 110.5 33.3 110.5 35.2C110.5 37 110.8 39.2 113.1 39.2ZM113.7 17.8C113.1 17.8 112.6 17.3 112.6 16.7C112.6 16.1 113.1 15.6 113.7 15.6C114.3 15.6 114.8 16.1 114.8 16.7C114.8 17.3 114.4 17.8 113.7 17.8ZM113.7 15.3C113 15.3 112.4 15.9 112.4 16.6C112.4 17.3 113 17.9 113.7 17.9C114.4 17.9 115 17.3 115 16.6C115 15.9 114.4 15.3 113.7 15.3Z" fill="#231F20"/>
</svg>
