<svg width="155" height="51" viewBox="0 0 155 51" fill="none" xmlns="http://www.w3.org/2000/svg">
<path d="M38.0301 21.6875C38.0301 22.0795 37.6174 22.5129 37.0809 23.1732C35.2444 25.4224 31.1793 29.4255 31.1793 39.3509C31.1793 44.489 32.0253 46.6144 32.0253 49.0287C32.0253 50.1223 31.7983 50.7001 31.2412 50.7001C29.9412 50.7001 27.7539 45.2731 27.7539 38.7938C27.7539 25.1954 36.338 21.3986 37.6586 21.3986C37.9269 21.3779 38.0301 21.5224 38.0301 21.6875ZM16.4253 21.3779C17.746 21.3779 26.3301 25.1748 26.3301 38.7731C26.3301 45.2731 24.1428 50.6795 22.8428 50.6795C22.265 50.6795 22.0587 50.1017 22.0587 49.008C22.0587 46.5938 22.9047 44.4684 22.9047 39.3303C22.9047 29.4049 18.819 25.4017 17.0031 23.1525C16.4666 22.4922 16.0539 22.0589 16.0539 21.6668C16.0333 21.5224 16.1571 21.3779 16.4253 21.3779Z" fill="#231F20"/>
<path d="M23.9155 24.1017C23.9155 25.8763 25.3187 27.3208 27.052 27.3208C28.7854 27.3208 30.1885 25.8763 30.1885 24.1017C30.1885 22.3271 28.7854 20.8827 27.052 20.8827C25.2981 20.8827 23.9155 22.3271 23.9155 24.1017Z" fill="#231F20"/>
<path d="M53.8158 44.3032C49.3587 41.5588 42.5698 38.7112 32.7476 37.8032C32.7269 37.927 32.6444 38.6493 32.6444 39.3509C32.6444 39.681 32.7063 40.1143 32.7063 40.1969C42.3015 40.8159 49.1317 42.8588 53.7539 44.5096C53.8364 44.5508 53.9396 44.5921 53.9809 44.5921C54.0221 44.5921 54.0634 44.5508 54.0634 44.5096C54.084 44.4477 54.0015 44.4064 53.8158 44.3032ZM32.1285 7.63503C31.3857 6.95408 30.746 5.92233 31.2412 4.35408C31.7158 2.84773 32.8714 1.63028 34.0888 1.27948C34.9142 2.24932 35.1825 3.92075 34.7079 5.4271C34.2333 7.01599 33.1396 7.51122 32.1285 7.63503ZM39.3714 13.6604C39.1031 12.7318 39.1237 11.5763 40.3412 10.5445C41.4968 9.57471 43.065 9.16201 44.2412 9.53344C44.4063 10.7509 43.7666 12.2366 42.611 13.2065C41.3936 14.2382 40.238 14.0731 39.3714 13.6604ZM39.5984 22.7398C39.9079 21.8318 40.5476 20.9033 42.0952 20.7382C43.5603 20.5731 45.0666 21.1303 45.8095 22.0588C45.2729 23.1318 43.9317 23.9779 42.4666 24.1429C40.919 24.3287 40.0936 23.5652 39.5984 22.7398ZM36.9777 26.0414C37.473 25.3604 38.2777 24.7414 39.619 25.0096C40.919 25.2572 42.0333 26.1239 42.4253 27.1144C41.6825 27.8985 40.3206 28.2699 39.0206 28.0017C37.6793 27.7334 37.1841 26.8667 36.9777 26.0414ZM29.0952 17.4366C28.1873 16.6318 27.4444 15.3937 28.0222 13.4953C28.5793 11.6795 29.9619 10.2144 31.4476 9.82233C32.438 10.9779 32.7682 12.9795 32.1904 14.7953C31.6127 16.6937 30.292 17.2922 29.0952 17.4366ZM32.5412 19.4382C32.2523 18.3858 32.273 17.0858 33.6349 15.9303C34.9349 14.8366 36.7095 14.3826 38.0095 14.7953C38.1952 16.1572 37.473 17.8287 36.173 18.9223C34.8111 20.0985 33.5317 19.9128 32.5412 19.4382ZM34.8317 12.0922C34.1714 11.0398 33.7793 9.63661 34.873 7.92392C35.9253 6.3144 37.6999 5.24138 39.2476 5.26202C39.9079 6.68583 39.6603 8.72868 38.6079 10.3382C37.5142 12.0715 36.0698 12.2779 34.8317 12.0922ZM39.4745 18.489C39.4952 17.3334 39.8872 16.0334 41.5999 15.2493C43.2301 14.5064 45.1698 14.5684 46.3666 15.3731C46.1603 16.8176 44.9428 18.3033 43.3126 19.0461C41.5999 19.8096 40.3412 19.2318 39.4745 18.489ZM24.5142 5.24138C24.5142 3.05408 25.546 0.949327 27.0523 0.00012207C28.5587 0.949327 29.5698 3.05408 29.5698 5.24138C29.5698 7.53186 28.3111 8.62551 27.0523 9.22392C25.773 8.62551 24.5142 7.53186 24.5142 5.24138ZM0 44.5096C0 44.5508 0.0206344 44.5921 0.0825391 44.5921C0.123809 44.5921 0.206349 44.5508 0.309523 44.5096C4.93174 42.8588 11.7825 40.8159 21.3571 40.1969C21.3777 40.1143 21.419 39.681 21.419 39.3509C21.419 38.6493 21.3365 37.927 21.3158 37.8032C11.4936 38.7112 4.70475 41.5588 0.247618 44.3032C0.0825389 44.4064 0 44.4477 0 44.5096ZM19.3555 5.4271C18.8809 3.92075 19.1492 2.24932 19.9746 1.27948C21.2127 1.60964 22.3682 2.84773 22.8222 4.35408C23.3174 5.92233 22.6777 6.95408 21.9349 7.63503C20.9444 7.51122 19.8508 7.01599 19.3555 5.4271ZM11.473 13.2065C10.3174 12.216 9.67776 10.7509 9.84284 9.53344C11.019 9.16201 12.5873 9.55407 13.7428 10.5445C14.9603 11.5763 14.9809 12.7318 14.7127 13.6604C13.8254 14.0731 12.6905 14.2382 11.473 13.2065ZM11.6174 24.1636C10.1317 23.9985 8.79046 23.1525 8.27459 22.0795C9.01745 21.1302 10.5238 20.5937 11.9889 20.7588C13.5365 20.9239 14.1762 21.8525 14.4857 22.7604C13.9905 23.5652 13.1651 24.3287 11.6174 24.1636ZM15.0428 28.0017C13.7428 28.2493 12.3809 27.8779 11.6587 27.1144C12.0508 26.1239 13.1651 25.2572 14.4651 25.0096C15.827 24.7414 16.6111 25.3604 17.1063 26.0414C16.9 26.8667 16.4047 27.7334 15.0428 28.0017ZM21.873 14.7953C21.3158 12.9795 21.6254 10.9779 22.6158 9.82233C24.1016 10.2144 25.4841 11.7001 26.0412 13.4953C26.619 15.3937 25.8762 16.6112 24.9682 17.4366C23.7714 17.2922 22.4714 16.6937 21.873 14.7953ZM17.9111 18.943C16.6111 17.8493 15.8889 16.1779 16.0746 14.816C17.3952 14.4033 19.1492 14.8572 20.4492 15.9509C21.8111 17.1064 21.8317 18.4064 21.5428 19.4588C20.5524 19.9128 19.273 20.0985 17.9111 18.943ZM15.4555 10.3795C14.4032 8.76995 14.1555 6.70646 14.8159 5.30329C16.3841 5.28265 18.1587 6.33503 19.1904 7.96519C20.2841 9.65725 19.892 11.0811 19.2317 12.1334C18.0143 12.2779 16.5698 12.0715 15.4555 10.3795ZM10.7714 19.0255C9.14126 18.2826 7.90316 16.7969 7.71745 15.3525C8.93491 14.5477 10.854 14.4858 12.4841 15.2287C14.1968 16.0128 14.5889 17.3128 14.6095 18.4683C13.7428 19.2318 12.4841 19.8096 10.7714 19.0255Z" fill="#231F20"/>
<path d="M109.468 37.824V25.2367C109.468 23.5446 109.303 20.3256 109.262 19.5827H113.162L113.348 22.1414H113.43C113.884 21.4192 115.349 19.17 118.754 19.17C122.86 19.17 125.151 22.1827 125.151 25.9589V37.8033H120.797V26.8256C120.797 24.5145 119.497 22.7605 117.289 22.7605C114.998 22.7605 113.781 24.597 113.781 26.8256V37.8033H109.468M84.0461 19.6446H79.6921V37.824H84.0461V19.6446ZM146.075 37.824C145.93 36.8128 145.517 34.1303 145.517 31.8192V19.9954C144.836 19.8303 142.36 19.17 139.533 19.17C132.167 19.17 128.989 24.1018 128.989 29.4462C128.989 34.3573 131.465 38.216 136.19 38.216C139.657 38.216 141.205 35.9668 141.782 34.7906H141.886C141.927 35.3478 142.092 37.2875 142.133 37.824H146.075ZM141.184 28.8065C141.184 32.9748 139.554 34.7081 137.202 34.7081C134.829 34.7081 133.487 32.6859 133.487 29.1573C133.487 25.5462 135.571 22.5541 139.389 22.5541C140.173 22.5541 140.73 22.6367 141.205 22.7399V28.8065H141.184ZM75.3588 33.3668C74.1826 33.924 72.2842 34.2954 70.4477 34.2954C65.454 34.2954 61.7604 30.7256 61.7604 25.2779C61.7604 19.8716 65.4128 16.2605 70.4477 16.2605C72.9445 16.2605 74.7191 16.8589 75.3588 17.1684V13.2684C74.2651 12.8557 72.4905 12.443 69.9937 12.443C62.235 12.443 57.0144 17.8081 57.0144 25.2573C57.0144 32.3144 61.8223 38.0716 69.9937 38.0716C72.3874 38.0716 74.1826 37.7001 75.3588 37.2668V33.3668ZM100.43 35.6367V36.9986C100.43 40.7128 98.1397 42.1573 95.2921 42.1573C92.7334 42.1573 90.8556 41.3938 90.2572 41.1874V44.8605C90.7524 44.9843 92.8159 45.6446 95.7667 45.6446C101.029 45.6446 104.537 43.4779 104.537 36.0494V20.016C103.856 19.851 101.4 19.1906 98.5524 19.1906C91.1857 19.1906 88.008 24.1224 88.008 29.4668C88.008 34.3779 90.4842 38.2367 95.2095 38.2367C98.3254 38.2367 99.8318 36.3589 100.327 35.6573H100.43V35.6367ZM100.203 28.8065C100.203 32.9748 98.573 34.7081 96.2 34.7081C93.827 34.7081 92.4857 32.6859 92.4857 29.1573C92.4857 25.5462 94.5492 22.5541 98.3873 22.5541C99.1714 22.5541 99.7286 22.6367 100.203 22.7399V28.8065ZM79.1762 14.878C79.1762 16.343 80.3731 17.5192 81.8794 17.5192C83.3651 17.5192 84.5619 16.343 84.5619 14.878C84.5619 13.4129 83.3651 12.2367 81.8794 12.2367C80.3937 12.2367 79.1762 13.4335 79.1762 14.878Z" fill="#231F20"/>
<path d="M154.081 37.2874C153.606 37.762 153.028 38.0096 152.368 38.0096C151.687 38.0096 151.13 37.762 150.655 37.2874C150.181 36.8128 149.954 36.235 149.954 35.5747C149.954 34.9144 150.181 34.3366 150.655 33.862C151.13 33.3874 151.687 33.1604 152.368 33.1604C153.028 33.1604 153.606 33.3874 154.081 33.862C154.555 34.3366 154.782 34.8937 154.782 35.5747C154.782 36.235 154.555 36.8128 154.081 37.2874ZM150.882 34.089C150.469 34.5017 150.284 34.9763 150.284 35.554C150.284 36.1318 150.49 36.6271 150.882 37.0398C151.295 37.4525 151.769 37.6588 152.347 37.6588C152.925 37.6588 153.42 37.4525 153.812 37.0398C154.225 36.6271 154.411 36.1318 154.411 35.554C154.411 34.9763 154.204 34.481 153.812 34.089C153.4 33.6763 152.904 33.4699 152.347 33.4699C151.79 33.4906 151.295 33.6969 150.882 34.089ZM152.306 34.2334C152.636 34.2334 152.884 34.2747 153.028 34.3366C153.296 34.4398 153.441 34.6667 153.441 35.0175C153.441 35.2652 153.358 35.4302 153.173 35.5334C153.09 35.5953 152.946 35.6366 152.781 35.6572C152.987 35.6985 153.131 35.781 153.235 35.9255C153.338 36.0699 153.379 36.1937 153.379 36.3382V36.5239C153.379 36.5858 153.379 36.6477 153.379 36.7302C153.379 36.7921 153.4 36.854 153.4 36.8747L153.42 36.916H152.987V36.8953V36.8747V36.7921V36.5858C152.987 36.2763 152.904 36.0699 152.739 35.9874C152.636 35.9255 152.471 35.9048 152.223 35.9048H151.852V36.9572H151.377V34.2953H152.306V34.2334ZM152.822 34.6461C152.698 34.5842 152.512 34.5429 152.244 34.5429H151.852V35.5128H152.285C152.492 35.5128 152.636 35.4921 152.739 35.4509C152.925 35.3683 153.008 35.2445 153.008 35.0382C152.987 34.8525 152.946 34.708 152.822 34.6461Z" fill="#231F20"/>
</svg>
