<svg width="140" height="24" viewBox="0 0 140 24" fill="none" xmlns="http://www.w3.org/2000/svg">
<path d="M68.0207 0.402664C66.8634 1.0118 66.5588 1.58033 66.6603 2.92044C66.7416 4.17933 67.3913 4.9509 68.5284 5.21486C70.8228 5.72248 72.4472 3.50927 71.3913 1.29607C70.9649 0.443273 70.6806 0.240226 69.6451 0.0371799C69.1172 -0.064343 68.7111 0.0371804 68.0207 0.402664Z" fill="#231F20"/>
<path d="M59.2896 4.34179V8.3215L58.8429 7.93571C56.5891 5.98646 52.8937 5.86464 50.2541 7.67175C48.0003 9.2149 46.8023 11.7327 46.8429 14.8596C46.8632 18.4535 48.3251 20.8901 51.3911 22.5753C52.9343 23.4078 55.2693 23.5297 56.8531 22.8596C57.4622 22.616 58.2947 22.1286 58.6805 21.8241L59.3911 21.2352L59.4521 22.0068L59.513 22.7784L61.6247 22.7175L63.7566 22.6566V11.489V0.341778H61.5231H59.2896V4.34179ZM56.5688 10.1895C57.3201 10.352 58.6602 11.489 59.046 12.2809C59.2896 12.8088 59.4318 13.6007 59.4724 14.5753C59.4927 15.9154 59.4318 16.1997 58.8835 17.1337C56.914 20.5449 51.98 19.7327 51.1475 15.8342C50.7008 13.6413 51.452 11.6921 53.1779 10.6159C54.2338 9.94587 55.0663 9.84434 56.5688 10.1895Z" fill="#231F20"/>
<path d="M3.77672 1.1946C3.63459 1.621 3.47215 2.47379 3.35033 3.30628C3.26911 3.73268 3.10667 4.72761 2.94423 5.51949C2.8021 6.29106 2.61936 7.3063 2.53814 7.753C2.47723 8.1997 2.29448 9.25554 2.13205 10.088C1.66504 12.5855 1.23864 15.0017 1.11682 15.8748C1.0559 16.3216 0.954379 16.8292 0.913769 16.9916C0.791942 17.3977 6.10352e-05 22.0881 6.10352e-05 22.4129C6.10352e-05 22.616 0.548286 22.6769 2.03052 22.6769C4.32495 22.6769 4.06099 22.9003 4.46708 20.5449C4.5686 19.8749 4.71074 19.1033 4.77165 18.819C4.83256 18.5348 4.91378 17.9662 4.9747 17.5195C5.03561 17.0931 5.11683 16.687 5.15744 16.6058C5.19805 16.5449 5.29957 16.0779 5.36048 15.5703C5.4214 15.0627 5.52292 14.4129 5.58383 14.1083C5.64475 13.7835 5.72597 13.2962 5.78688 12.9916C6.05084 11.2251 6.37572 9.68194 6.47724 9.68194C6.53815 9.68194 7.57369 12.5855 8.75136 16.1185L10.9036 22.5754L12.8326 22.6363L14.7818 22.6972L16.9747 16.0982C18.193 12.4637 19.2285 9.56011 19.3098 9.64133C19.3707 9.72255 19.594 10.7378 19.7768 11.9154C20.1423 14.3723 20.1626 14.4535 20.8326 18.5145C21.0966 20.1794 21.3808 21.8038 21.4418 22.1084L21.5636 22.6769H23.5737C25.8072 22.6769 25.7463 22.7378 25.4012 21.1541C25.2996 20.7074 25.1372 19.9764 25.0763 19.5297C24.9951 19.083 24.8935 18.5348 24.8732 18.3114C24.8326 18.0881 24.7311 17.4992 24.6702 16.9916C24.6093 16.484 24.4671 15.6718 24.3656 15.1642C24.2641 14.6566 24.0814 13.6007 23.9595 12.8292C23.858 12.0373 23.7159 11.1845 23.6753 10.9002C23.4519 9.66163 22.457 3.75299 22.2539 2.47379L22.0306 1.05247L19.9595 0.991556L17.9087 0.930641L17.6448 1.70222C17.5027 2.12861 17.3605 2.5144 17.3605 2.57532C17.3402 2.63623 17.259 2.81897 17.1981 2.98141C17.1169 3.14385 16.2235 5.80375 15.2285 8.86975C14.2133 11.9358 13.3402 14.5957 13.259 14.7581C13.1981 14.9205 13.1169 15.1845 13.0762 15.3266C13.0559 15.4891 12.995 15.6515 12.9544 15.6921C12.8935 15.7327 11.7564 12.4637 10.4163 8.40275L7.93917 1.05247L5.90871 0.991556C4.36556 0.950947 3.83764 1.01186 3.77672 1.1946Z" fill="#231F20"/>
<path d="M81.3404 6.25039C78.5993 6.65648 75.8785 8.68694 74.6805 11.2047C74.0714 12.5245 74.0104 12.7885 74.0104 14.6565C74.0104 16.5651 74.051 16.7682 74.7008 18.088C75.4318 19.5499 77.0561 21.3976 78.0714 21.9053C79.9394 22.8596 80.4064 22.9611 83.1475 22.9611C85.5841 22.9814 86.6805 22.6971 88.2237 21.6413C89.2186 20.9712 90.3557 19.9357 90.3557 19.6921C90.3557 19.6108 89.9293 19.2657 89.381 18.9205C88.8531 18.5956 88.3049 18.2098 88.1628 18.0677C87.513 17.4382 87.1475 17.3773 86.7617 17.8646C85.645 19.2047 82.843 19.7124 80.9343 18.9205C79.0663 18.1286 78.1932 16.6667 78.2744 14.5144C78.3353 13.3164 78.4368 13.0118 79.0257 12.1793C79.98 10.8392 81.2998 10.1895 83.046 10.1895C84.5688 10.1895 86.0105 10.6768 86.7008 11.4078L87.1475 11.8951L88.2034 11.3062C88.7719 10.9814 89.5435 10.5753 89.909 10.4128C90.2541 10.2504 90.5587 10.0067 90.5587 9.88492C90.5587 9.53974 88.7922 7.89506 87.7973 7.32653C86.1729 6.37222 83.4724 5.92551 81.3404 6.25039Z" fill="#231F20"/>
<path d="M33.6247 6.4738C31.1069 7.02203 28.6297 9.62102 27.8175 12.5652C27.513 13.7226 27.6348 16.8089 28.0206 17.7023C28.1627 18.0271 28.3048 18.4129 28.3454 18.5551C28.4064 18.9205 29.2795 20.0576 29.9495 20.687C31.2084 21.8444 31.5942 22.1287 32.2642 22.4129C32.9952 22.7175 33.2389 22.7987 34.6196 23.083C35.4521 23.2657 37.8074 23.1845 38.782 22.9612C40.2034 22.6363 42.0105 21.418 43.1069 20.0779C43.513 19.55 43.5333 19.4282 43.2084 19.4282C43.0663 19.4282 42.4369 19.1845 41.8277 18.9002C41.2186 18.5957 40.5079 18.2708 40.2643 18.1693C39.9191 18.0068 39.6957 18.0677 39.1475 18.4535C38.1526 19.2048 37.2592 19.4891 35.98 19.4891C34.7414 19.4891 33.3201 18.9205 32.6094 18.1287C32.2236 17.682 31.6754 16.5652 31.6754 16.1794C31.6754 16.0373 33.8074 15.9764 38.0714 15.9764H44.4673V14.5957C44.4673 12.9916 43.8176 11.0017 42.8633 9.60072C42.0714 8.46366 40.2846 7.06264 39.249 6.79868C36.8125 6.18954 35.3708 6.10832 33.6247 6.4738ZM38.2135 10.2505C39.2896 10.819 39.8785 11.3875 40.1018 12.0576L40.2237 12.5246H36.1424H32.0612L32.183 12.0576C32.4064 11.3469 33.117 10.6769 34.2135 10.1489C35.5333 9.5195 36.914 9.56011 38.2135 10.2505Z" fill="#231F20"/>
<path d="M99.8989 6.37225C98.1933 6.5753 95.7567 7.93571 95.0867 9.07277C94.9039 9.39764 94.6806 9.68191 94.6197 9.68191C94.3963 9.68191 93.645 11.5499 93.4014 12.6261C93.1171 13.885 93.178 16.4027 93.5232 17.5195C94.0308 19.2251 95.7161 21.6616 96.3862 21.6616C96.5283 21.6616 96.6501 21.7632 96.6501 21.8647C96.6501 22.2505 98.9446 23.1439 100.224 23.2454C101.848 23.3672 103.249 23.0221 104.569 22.149C105.137 21.7632 105.665 21.4586 105.706 21.4586C105.747 21.4586 105.787 21.7226 105.787 22.0474V22.6566L107.919 22.7175L110.051 22.7784V14.6972V6.63621H107.919H105.787V7.54992V8.48393L105.259 7.99662C104.041 6.85956 101.706 6.16921 99.8989 6.37225ZM103.351 10.3114C103.513 10.352 103.736 10.4535 103.858 10.555C104.934 11.3469 105.219 11.6108 105.462 12.1794C106.396 14.2708 106.153 16.5449 104.792 18.088C103.797 19.2251 101.341 19.6109 99.8177 18.8799C98.4166 18.2302 97.3405 15.9763 97.5029 14.1489C97.7669 11.5702 99.4522 10.0068 101.828 10.1489C102.498 10.1895 103.188 10.2707 103.351 10.3114Z" fill="#231F20"/>
<path d="M118.579 6.45346C118.295 6.55498 117.726 7.02199 117.32 7.46869L116.549 8.30118V7.44839V6.6159L114.884 6.67681L113.198 6.73772L113.137 14.6971L113.097 22.6566L115.127 22.7175L117.158 22.7784L117.198 18.6159C117.239 12.3012 117.361 11.489 118.396 10.4332C118.985 9.84433 119.351 9.80372 120.203 10.1692C120.447 10.2707 120.67 9.90525 121.158 8.52453C121.564 7.40778 121.747 6.67681 121.625 6.55498C121.341 6.27072 119.168 6.1895 118.579 6.45346Z" fill="#231F20"/>
<path d="M128.528 6.65658C127.817 6.83932 127.188 7.10328 127.147 7.22511C127.107 7.34694 126.965 7.44846 126.822 7.44846C126.376 7.44846 124.528 9.45862 123.939 10.5551C122.782 12.7886 122.599 15.3673 123.452 17.9257C123.817 19.0221 124.142 19.5094 125.259 20.6465C126.355 21.7835 126.843 22.1084 128.02 22.5551C130.01 23.2861 132.223 23.3876 134.538 22.8191C136.081 22.4333 138.924 20.0779 138.498 19.55C138.376 19.4079 137.624 19.0018 136.792 18.6566L135.31 17.9866L134.112 18.7175C133.056 19.347 132.751 19.4282 131.574 19.4282C130.031 19.4282 129.036 19.1642 128.366 18.5348C127.817 18.0475 127.208 17.0932 127.005 16.4231L126.883 15.9764H133.279C139.493 15.9764 139.675 15.9561 139.797 15.5703C140.142 14.4942 139.249 10.9612 138.315 9.70228C136.061 6.67689 132.487 5.56013 128.528 6.65658ZM132.67 9.90532C133.117 10.0271 133.726 10.3114 134.051 10.5551C134.599 10.9612 135.432 12.0779 135.432 12.4028C135.432 12.4637 133.564 12.5246 131.269 12.5246H127.127L127.553 11.814C127.98 11.083 129.32 10.0068 130.051 9.8241C130.782 9.64136 131.858 9.68197 132.67 9.90532Z" fill="#231F20"/>
<path d="M67.1475 6.77833C67.0663 6.83925 67.0053 10.4738 67.0053 14.8393V22.7784L69.1373 22.7175L71.2693 22.6566V14.6362V6.6362H69.2795C68.183 6.6362 67.2084 6.69711 67.1475 6.77833Z" fill="#231F20"/>
</svg>
