<svg width="164" height="52" viewBox="0 0 164 52" fill="none" xmlns="http://www.w3.org/2000/svg">
<path d="M8.25467 49.6251C9.922 50.205 11.6713 50.5088 13.448 50.4811C21.2653 50.4811 26.7047 44.7647 26.7047 33.8842V1.43601L29.684 0V34.4365C29.684 45.538 24.026 52 15.99 52C13.202 52 10.5233 51.1715 8.25467 49.6251ZM4.838 46.3112C6.642 46.9188 8.446 47.3054 10.0313 47.3054C16.5913 47.3054 20.9647 43.1354 20.9647 33.7462V3.9214L23.8893 2.51301V33.9947C23.8893 43.8258 18.942 48.8795 12.0813 48.8795C9.56667 48.8795 6.99733 47.9405 4.838 46.3112ZM2.788 43.384C4.182 43.8534 5.658 44.102 7.134 44.1572C12.2453 44.1572 15.3887 41.3404 15.3887 33.9118V6.4068L18.2587 4.99841V33.4424C18.2587 41.7823 14.4867 45.538 9.07467 45.538C6.77867 45.5656 4.56467 44.7924 2.788 43.384ZM12.6553 34.7127V7.56665L0 13.3383V35.3755C0 39.573 2.624 42.3898 6.478 42.3898C10.332 42.3898 12.6553 39.5178 12.6553 34.7127ZM45.9473 7.51142V17.6187C45.9473 21.3468 48.134 24.274 52.316 24.274C55.8967 24.274 58.6027 21.5953 58.6027 17.5358V7.75996C58.5753 6.68295 59.3953 5.77164 60.4613 5.74403H60.4887L60.8713 5.71641V4.74987H54.5847V5.71641L54.9947 5.74403C56.0607 5.77164 56.908 6.65534 56.8807 7.73234V7.75996V17.2321C56.8807 20.325 55.2953 22.2029 52.808 22.2029C50.3207 22.2029 48.8173 20.2145 48.8173 17.2045V7.4838C48.8173 6.43442 49.3913 5.79926 50.5667 5.74403L50.9493 5.71641V4.74987H43.788V5.71641L44.198 5.74403C45.3733 5.85449 45.9473 6.43441 45.9473 7.51142ZM54.448 29.1067L54.858 29.1344C55.8693 29.1896 56.6073 29.6038 56.6073 30.7361V36.6734H49.528V30.7361C49.528 29.5762 50.2933 29.2172 51.2773 29.1344L51.66 29.1067V28.1402H44.4987V29.1067L44.9087 29.1344C45.92 29.1896 46.658 29.6038 46.658 30.7361V44.6543C46.658 45.8141 45.8927 46.2007 44.9087 46.256L44.4987 46.2836V47.2501H51.66V46.2836L51.2773 46.256C50.266 46.1731 49.528 45.7865 49.528 44.6543V38.1646H56.58V44.6543C56.58 45.8141 55.8147 46.2007 54.8307 46.256L54.4207 46.2836V47.2501H61.582V46.2836L61.1993 46.256C60.2153 46.1731 59.45 45.7865 59.45 44.6543V30.7361C59.45 29.5762 60.2153 29.2172 61.1993 29.1344L61.582 29.1067V28.1402H54.448V29.1067ZM60.8713 10.3834V11.2947L61.418 11.3224C62.238 11.3776 62.7573 11.7918 62.7573 12.9241V21.3192C62.7573 22.4514 62.1833 22.8656 61.2813 22.9209L60.8713 22.9485V23.8874H67.2673V22.9485L66.8847 22.9209C65.9553 22.8656 65.4087 22.4514 65.4087 21.3192V16.8455C65.4633 13.5592 66.8573 11.5985 68.5247 11.5985C69.782 11.5985 70.6293 12.4822 70.6293 14.1668V21.2916C70.6293 22.4238 70.0553 22.838 69.1533 22.8933L68.7433 22.9209V23.8598H75.1393V22.9209L74.7567 22.8933C73.8273 22.838 73.2807 22.4238 73.2807 21.2916V13.8354C73.2807 11.709 71.996 9.94158 69.4267 9.94158C67.6227 9.94158 66.0373 11.0462 65.436 12.9793V9.99682L60.8713 10.3834ZM97.7987 24.1636C100.532 24.1636 102.063 22.2857 102.691 20.1593L101.516 19.8279C100.969 21.2916 100.04 22.4514 98.154 22.4514C95.9673 22.4514 94.4913 20.3526 94.4913 17.0112H102.883V16.2103C102.883 12.7031 100.833 9.85874 97.5253 9.85874C93.9993 9.85874 91.6487 13.2831 91.6487 17.0112C91.6487 20.7392 93.9173 24.1636 97.7987 24.1636ZM97.498 11.4052C98.974 11.4052 99.9307 12.8136 100.04 15.658H94.5187C94.792 13.0345 95.8853 11.4052 97.498 11.4052ZM84.5147 20.8221C84.5147 22.9485 85.772 24.1636 87.822 24.1636C89.708 24.1636 90.9653 22.7552 91.512 20.7669L90.528 20.4907C90.1453 21.6506 89.5167 22.3409 88.6693 22.3409C87.5213 22.3409 87.166 21.5125 87.166 20.5183V11.6814H90.856V10.273H87.166V6.07541H85.8267C85.3073 9.25119 83.722 10.3834 82.0547 10.7424V11.709H84.542L84.5147 20.8221ZM78.8567 7.81519C79.8407 7.78757 80.606 6.93149 80.5787 5.93733C80.5513 4.99841 79.786 4.25279 78.8567 4.19756C77.9 4.19756 77.1347 4.99841 77.1347 5.96495C77.08 6.98673 77.8453 7.78757 78.8567 7.81519C78.8293 7.81519 78.8293 7.81519 78.8567 7.81519ZM77.5993 12.9241V21.3192C77.5993 22.4514 77.0253 22.8656 76.1233 22.9209L75.7133 22.9485V23.8874H82.1093V22.9485L81.7267 22.9209C80.7973 22.8656 80.2507 22.4514 80.2507 21.3192V10.0244L75.5767 10.3834V11.2947L76.26 11.3224C77.08 11.3224 77.5993 11.7642 77.5993 12.9241ZM109.771 24.1636C111.547 24.1636 112.941 23.2246 113.515 21.6506V23.8874H118.025V22.9761L117.643 22.9485C116.713 22.8933 116.167 22.479 116.167 21.3468V4.41848L111.575 4.83271V5.74403L112.176 5.77164C112.996 5.79925 113.515 6.2411 113.515 7.37334V12.2889C112.914 10.77 111.547 9.85874 109.771 9.85874C106.245 9.85874 104.222 13.2831 104.222 17.0112C104.222 20.7392 106.217 24.1636 109.771 24.1636ZM110.208 11.4052C112.203 11.4052 113.515 13.5868 113.515 16.9835C113.515 20.3802 112.231 22.5619 110.208 22.5619C108.322 22.5619 107.065 20.4079 107.065 16.9835C107.065 13.5592 108.322 11.4052 110.208 11.4052ZM149.951 33.2767C148.393 33.2767 147.026 34.3261 146.452 36.1763V33.3871L141.915 33.7462V34.6575L142.461 34.6851C143.281 34.7403 143.801 35.1545 143.801 36.2868V44.6819C143.801 45.8417 143.254 46.2284 142.325 46.2836L141.915 46.3112V47.2501H148.311V46.3112L147.928 46.2836C146.999 46.2284 146.452 45.8141 146.452 44.6819V40.0977C146.507 36.701 147.955 34.547 149.759 34.547C150.087 34.5194 150.415 34.6575 150.661 34.906C150.197 35.1545 149.896 35.6516 149.896 36.1763C149.896 36.9772 150.525 37.6123 151.317 37.6123C152.11 37.6123 152.739 36.9496 152.739 36.0382C152.739 34.3537 151.454 33.2767 149.951 33.2767ZM158.643 33.2215C155.117 33.2215 152.766 36.6182 152.766 40.3739C152.766 44.1296 155.035 47.5263 158.916 47.5263C161.649 47.5263 163.18 45.6484 163.809 43.522L162.633 43.1907C162.087 44.6543 161.157 45.8141 159.271 45.8141C157.085 45.8141 155.609 43.7154 155.609 40.3739H164V39.573C164 36.0658 161.95 33.2215 158.643 33.2215ZM155.636 39.0207C155.909 36.3696 156.975 34.7679 158.615 34.7679C160.091 34.7679 161.048 36.1763 161.157 39.0207H155.636ZM139.619 44.9857V37.8609C139.619 34.9336 137.815 33.2215 134.753 33.2215C132.129 33.2215 129.806 34.9612 129.806 36.9495C129.779 37.7504 130.407 38.4132 131.2 38.4132C131.993 38.4132 132.649 37.8056 132.649 37.0048C132.649 36.4801 132.375 35.983 131.911 35.7345C132.403 35.0441 133.25 34.6298 134.316 34.6298C135.983 34.6298 136.967 35.8725 136.967 37.9713V38.6065L132.977 40.291C130.298 41.3956 129.396 42.3898 129.396 44.1572C129.396 46.2007 130.845 47.4987 133.141 47.4987C134.835 47.4987 136.339 46.4217 136.94 44.82V45.2342C136.94 46.6426 137.924 47.4711 139.537 47.4711C140.111 47.4711 140.685 47.3882 141.231 47.2225V46.3112C140.111 46.4493 139.619 46.0074 139.619 44.9857ZM136.967 41.8927C136.831 44.2953 135.655 45.897 133.988 45.897C132.813 45.897 132.047 45.0685 132.047 43.8258C132.047 42.7212 132.649 41.8375 133.769 41.3404L136.967 39.9044V41.8927ZM101.707 43.8534C101.325 44.9857 100.723 45.7037 99.8487 45.7037C98.7007 45.7037 98.3453 44.8752 98.3453 43.881V35.0441H102.035V33.6357H98.3453V29.4381H97.006C96.4867 32.6139 94.9013 33.7462 93.234 34.1052V35.0717H95.7213V44.1848C95.7213 46.3112 96.9787 47.5263 99.0287 47.5263C100.915 47.5263 102.172 46.1179 102.719 44.1296L101.707 43.8534ZM84.5693 44.9857V37.8609C84.5693 34.9336 82.7653 33.2215 79.704 33.2215C77.08 33.2215 74.7567 34.9612 74.7567 36.9495C74.7293 37.7504 75.358 38.4132 76.1507 38.4132C76.9433 38.4132 77.5993 37.8056 77.5993 37.0048C77.5993 36.4801 77.326 35.983 76.8613 35.7345C77.3533 35.0441 78.2007 34.6298 79.2667 34.6298C80.934 34.6298 81.918 35.8725 81.918 37.9713V38.6065L77.9273 40.291C75.2487 41.3956 74.3467 42.3898 74.3467 44.1572C74.3467 46.2007 75.7953 47.4987 78.0913 47.4987C79.786 47.4987 81.2893 46.4217 81.8907 44.82V45.2342C81.8907 46.6426 82.8747 47.4711 84.4873 47.4711C85.0613 47.4711 85.6353 47.3882 86.182 47.2225V46.3112C85.0887 46.4493 84.5693 46.0074 84.5693 44.9857ZM81.9453 41.8927C81.8087 44.2953 80.6333 45.897 78.966 45.897C77.7907 45.897 77.0253 45.0685 77.0253 43.8258C77.0253 42.7212 77.6267 41.8375 78.7473 41.3404L81.9453 39.9044V41.8927ZM124.039 45.7865C121.852 45.7865 120.376 43.6877 120.376 40.3463C120.376 36.9496 121.825 34.7955 124.011 34.7955C124.995 34.7955 125.733 35.1269 126.198 35.7345C125.788 36.0106 125.515 36.4801 125.515 36.9772C125.515 37.778 126.143 38.4132 126.936 38.4132C127.756 38.4132 128.357 37.7504 128.357 36.8391C128.357 35.2098 126.745 33.1938 123.847 33.1938C119.829 33.1938 117.506 36.5905 117.506 40.3463C117.506 44.0744 119.775 47.4987 123.656 47.4987C126.335 47.4987 127.838 45.7037 128.439 43.6601L127.264 43.3011C126.772 44.7095 125.87 45.7865 124.039 45.7865ZM91.4027 44.6819V27.8088L86.8107 28.1954V29.1067L87.412 29.1344C88.232 29.162 88.7513 29.6038 88.7513 30.7361V44.6819C88.7513 45.8417 88.1773 46.2284 87.2753 46.2836L86.8653 46.3112V47.2501H93.2613V46.3388L92.8787 46.3112C91.9767 46.2284 91.4027 45.8141 91.4027 44.6819ZM115.073 44.6819V37.2257C115.073 35.0993 113.789 33.3319 111.219 33.3319C109.415 33.3319 107.83 34.4089 107.229 36.3696V27.8088L102.637 28.1954V29.1067L103.238 29.1344C104.058 29.162 104.577 29.6038 104.577 30.7361V44.6819C104.577 45.8417 104.003 46.2284 103.101 46.2836L102.691 46.3112V47.2501H109.06V46.3388L108.677 46.3112C107.748 46.256 107.201 45.8417 107.201 44.7095V40.2358C107.256 36.9772 108.65 34.9889 110.317 34.9889C111.575 34.9889 112.422 35.8725 112.422 37.5571V44.7095C112.422 45.8694 111.848 46.256 110.946 46.3112L110.536 46.3388V47.2778H116.932V46.3388L116.549 46.3112C115.62 46.2284 115.073 45.8141 115.073 44.6819ZM68.0053 33.2215C64.4793 33.2215 62.1287 36.6458 62.1287 40.3739C62.1287 44.102 64.3973 47.5263 68.2787 47.5263C71.012 47.5263 72.5427 45.6484 73.1713 43.522L71.996 43.1907C71.4493 44.6543 70.52 45.8141 68.634 45.8141C66.4473 45.8141 64.9713 43.7154 64.9713 40.3739H73.3627V39.573C73.3627 36.0658 71.2853 33.2215 68.0053 33.2215ZM64.9987 39.0207C65.272 36.3696 66.338 34.7679 67.978 34.7679C69.454 34.7679 70.4107 36.1763 70.52 39.0207H64.9987Z" fill="#231F20"/>
</svg>
