<svg width="130" height="25" viewBox="0 0 130 25" fill="none" xmlns="http://www.w3.org/2000/svg">
<path d="M58.9508 16.3866C64.9951 16.3866 68.0969 14.4975 68.0969 10.4353C68.0969 6.92951 65.5386 4.59603 59.9816 4.59603C53.2476 4.59603 50.5562 7.58848 49.9434 12.9499C48.9613 12.8883 47.8874 12.8659 46.4236 12.8603C46.4236 12.5691 46.4311 12.2779 46.4311 11.9792C46.4311 6.54309 44.1727 4.57736 38.149 4.57736C35.2065 4.57736 32.6145 5.01419 31.0308 5.65449L31.2669 9.99477C32.6463 9.26486 34.7042 8.56481 36.6552 8.56481C39.4085 8.56481 40.2462 9.69609 40.2462 12.4123L40.2387 12.8155C40.0513 12.808 39.5621 12.808 39.2979 12.808C32.4383 12.808 29.2596 14.8764 29.2596 18.7108C29.2596 22.5452 31.2332 24.9869 36.8577 24.9869C39.8208 24.9869 42.7483 24.5706 46.5192 24.5706C46.2399 22.9876 46.2324 20.7101 46.2324 19.1476C46.2324 18.3206 46.2737 17.335 46.3168 16.2168C47.9267 16.2298 49.1131 16.2728 49.8928 16.3064C50.4775 22.6534 53.7817 25 60.6638 25C63.209 25 65.7804 24.5688 67.1261 23.9453L66.8899 19.605C65.5518 20.376 63.6907 21.0069 61.6478 21.0069C58.2667 21.0069 56.4337 19.2503 56.4337 16.4725V16.34C57.041 16.368 58.2461 16.3885 58.9508 16.3885V16.3866ZM38.3233 21.1918C36.2317 21.1918 35.3396 20.4973 35.3396 18.7537C35.3396 17.0102 36.4753 16.1216 39.3335 16.1216C39.5977 16.1216 39.9182 16.1141 40.1488 16.1346C40.1356 17.7587 40.1 19.6554 40.19 20.9752C39.6952 21.1078 38.9624 21.1899 38.3214 21.1899L38.3233 21.1918ZM56.4056 13.032V12.935C56.4056 10.2132 57.2696 8.21386 59.7792 8.21386C61.2017 8.21386 62.1145 8.95684 62.1145 10.3047C62.1145 12.1994 60.8456 13.0824 58.2105 13.0824C57.577 13.0824 56.9004 13.075 56.4056 13.0339V13.032ZM80.4573 20.6504C78.435 20.6504 77.8428 19.8514 77.8428 16.928V9.3806H81.8311V5.18593H77.9065C77.9065 3.69997 78.0246 1.5065 78.1502 0H74.4561C73.9688 3.66637 72.9024 5.55555 69.5419 6.10999C69.5288 7.09565 69.5832 8.44347 69.5419 9.3806H71.7797C71.7441 11.4639 71.6823 15.2684 71.6823 18.7332C71.6823 23.1556 73.9819 24.9683 78.3057 24.9683C80.4104 24.9683 81.9585 24.6621 82.4739 24.5165L82.2097 20.2042C81.833 20.4618 81.087 20.6485 80.4592 20.6485L80.4573 20.6504ZM122.52 11.9773C122.52 6.54122 120.262 4.57549 114.245 4.57549C111.297 4.57549 108.711 5.01232 107.127 5.65263L107.363 9.9929C108.743 9.26299 110.793 8.56294 112.752 8.56294C115.505 8.56294 116.343 9.69422 116.343 12.4104V12.8136C116.148 12.8062 115.666 12.8062 115.402 12.8062C108.535 12.8062 105.364 14.8745 105.364 18.7089C105.364 22.5433 107.337 24.9851 112.962 24.9851C115.925 24.9851 118.852 24.5688 122.618 24.5688C122.346 22.9857 122.338 20.7083 122.338 19.1458C122.331 17.376 122.52 14.8895 122.52 11.9792V11.9773ZM114.42 21.1918C112.321 21.1918 111.436 20.4973 111.436 18.7537C111.436 17.0102 112.572 16.1216 115.43 16.1216C115.689 16.1216 116.009 16.1141 116.238 16.1346C116.23 17.7587 116.189 19.6554 116.286 20.9752C115.792 21.1078 115.053 21.1899 114.418 21.1899L114.42 21.1918ZM102.848 15.5261C102.848 13.887 102.884 11.7066 102.884 11.7066C102.884 6.79697 100.723 4.59603 94.6094 4.59603C91.1796 4.59603 88.7319 5.1934 84.9048 5.1934C85.1203 8.63762 85.1278 12.8939 85.1147 15.5317C85.1278 18.2124 85.0247 23.0175 84.9048 24.565H91.472C91.3183 23.01 91.1928 18.5447 91.2077 15.5317C91.2077 13.8161 91.2284 11.7402 91.2977 8.95684C91.9537 8.73469 92.7821 8.56854 93.6817 8.56854C95.9814 8.56854 96.7217 9.64568 96.7217 12.5952C96.7217 12.5952 96.7573 14.4489 96.7573 15.5391C96.7573 18.2198 96.6673 23.0249 96.5474 24.5725H103.115C102.961 23.0025 102.828 18.5391 102.85 15.5242L102.848 15.5261ZM21.5098 3.7149C20.8969 3.10446 20.0948 2.79831 19.3001 2.79831C18.5054 2.79831 17.6902 3.10446 17.0754 3.72237L13.4357 7.35327L9.79038 3.72237C9.17002 3.097 8.36786 2.79271 7.5657 2.79271C6.76354 2.79271 5.96326 3.09886 5.34852 3.7093L0.914146 8.12612C-0.305962 9.3414 -0.305962 11.3202 0.921643 12.5429L13.4282 25L25.9348 12.5429C27.1624 11.3277 27.1549 9.34886 25.9348 8.12612L21.5079 3.71677L21.5098 3.7149ZM127.736 5.70676C127.736 5.04779 127.331 4.76964 126.544 4.76964H125.303V8.01971H125.839V6.63083H126.342L127.185 8.01971H127.792L126.88 6.58976C127.374 6.54122 127.736 6.29854 127.736 5.70863V5.70676ZM125.839 6.17906V5.227H126.488C126.808 5.227 127.198 5.27553 127.198 5.66383C127.198 6.13612 126.842 6.17159 126.445 6.17159H125.837V6.17906H125.839ZM126.424 3.40875C124.863 3.40875 123.525 4.58296 123.525 6.34521C123.525 8.10745 124.73 9.28166 126.424 9.28166C127.972 9.28166 129.31 8.11492 129.31 6.34521C129.31 4.57549 127.972 3.40875 126.424 3.40875ZM126.424 8.77016C125.022 8.77016 124.151 7.67996 124.151 6.34707C124.151 4.91711 125.14 3.92398 126.424 3.92398C127.708 3.92398 128.675 4.92458 128.675 6.34707C128.675 7.76956 127.685 8.77016 126.424 8.77016Z" fill="#231F20"/>
</svg>
