<svg width="146" height="30" viewBox="0 0 146 30" fill="none" xmlns="http://www.w3.org/2000/svg">
<path d="M40.7039 7.13592C40.1942 7.13592 39.8301 7.5 39.8301 8.00971V25.0728C38.5922 25.3155 37.2087 25.5825 35.8495 25.5825C32.8641 25.5825 31.8689 24.466 31.8689 21.2379V8.03398C31.8689 7.52427 31.5049 7.16019 31.1165 7.16019H26.6262V21.2136C26.6262 27.8155 30.1214 29.9272 35.7039 29.9272C40.1942 29.9272 44.6602 28.6893 45.0485 28.568V7.16019H40.7039V7.13592ZM109.296 29.6602C109.66 29.6602 110.17 29.2961 110.17 28.7864V11.6019C111.408 11.3592 112.791 11.0922 114.15 11.0922C117.136 11.0922 118.131 12.2087 118.131 15.4369V28.7621C118.131 29.2718 118.495 29.6359 118.883 29.6359H123.374V15.4369C123.374 8.83495 119.879 6.7233 114.296 6.7233C109.806 6.7233 105.34 7.96116 104.951 8.08252V29.6116H109.296V29.6602ZM91.3592 6.74757C85.5097 6.74757 81.8932 9.85437 81.8932 16.699V20.0485C81.8932 27.5243 85.8738 30 90.0971 30C92.2087 30 94.4417 28.4951 95.0728 27.6456V29.0049C95.0728 29.3689 95.4369 29.7573 95.8252 29.7573C95.8252 29.7573 100.17 29.7573 100.316 29.7573V7.98544C100.437 8.00971 96.0922 6.74757 91.3592 6.74757ZM95.2184 24.1748C94.2233 25.0485 93.4709 25.534 91.3592 25.534C88.3738 25.6553 87.1359 23.7864 87.1359 19.9272V16.8204C87.1359 12.4757 88.7621 11.2136 91.3592 11.2136C93.4709 11.2136 94.7087 11.3349 95.2184 11.4563V24.1748ZM136.553 6.74757C130.704 6.74757 127.087 9.85437 127.087 16.699V20.0485C127.087 27.5243 131.068 30 135.437 30C137.549 30 139.782 28.4951 140.413 27.6456V29.0049C140.413 29.3689 140.777 29.7573 141.165 29.7573C141.165 29.7573 145.51 29.7573 145.655 29.7573V7.98544C145.631 8.00971 141.286 6.74757 136.553 6.74757ZM140.413 24.1748C139.417 25.0485 138.665 25.534 136.553 25.534C133.568 25.534 132.33 23.7864 132.33 19.9272V16.8204C132.33 12.3301 133.956 11.2136 136.553 11.2136C138.665 11.2136 139.903 11.3349 140.413 11.4563V24.1748ZM0 29.6602C0.752427 29.6602 4.73301 29.6602 4.73301 29.6602C5.09709 29.6602 5.48544 29.2961 5.48544 28.9078V16.4563H14.199C15.7039 16.4563 16.699 17.5728 16.699 18.8107V28.8835C16.699 29.2476 17.0631 29.6359 17.4515 29.6359C17.4515 29.6359 21.9417 29.6359 22.1845 29.6359C22.1845 29.6359 22.1845 0.26699 22.1845 0H17.4272C17.0631 0 16.6748 0.364079 16.6748 0.752429V11.966H7.71845C6.48058 11.966 5.6068 10.9709 5.6068 9.85437V0.776695C5.48544 0.533976 5.24272 0.0242733 4.73301 0.0242733H0C0 0.291264 0 29.6602 0 29.6602ZM70.0728 6.74757C67.5728 6.74757 65.2184 7.74272 64.1019 8.49514C62.4757 7.25728 60.2427 6.74757 57.5 6.74757C53.3981 6.74757 49.9029 7.98544 49.4175 8.25243V29.7815H53.9078C54.4175 29.7815 54.6602 29.4175 54.6602 28.9078V11.6019C55.7767 11.3592 56.6505 11.2379 57.4029 11.2379C60.5097 11.2379 61.2621 12.4757 61.2621 15.5825V28.9078C61.2621 29.2718 61.5048 29.7815 62.0146 29.7815H65.7524C66.2621 29.7815 66.5049 29.4175 66.5049 28.9078V12.233C67.3786 11.6019 68.4951 11.2379 69.6116 11.2379C71.966 11.2379 72.9612 12.3544 72.9612 15.2184V28.9078C72.9612 29.2718 73.2039 29.7815 73.7136 29.7815C73.7136 29.7815 77.8155 29.7815 78.2039 29.7815V14.466C78.301 8.76214 74.6845 6.74757 70.0728 6.74757Z" fill="#231F20"/>
</svg>
